<svg width="80" height="80" viewBox="0 0 80 80" fill="none" xmlns="http://www.w3.org/2000/svg">
<path d="M65.3883 42.0255C65.3883 49.489 64.5699 55.905 62.9332 61.2735C61.3619 66.642 58.7104 70.7665 54.9787 73.6472C51.3124 76.5279 46.3367 77.9682 40.0517 77.9682C31.2788 77.9682 24.8628 74.7929 20.8037 68.4424C16.7445 62.0918 14.715 53.2862 14.715 42.0255C14.715 34.431 15.5006 27.9495 17.0719 22.5811C18.7086 17.2126 21.3929 13.088 25.1246 10.2073C28.8564 7.32668 33.8321 5.88635 40.0517 5.88635C48.8246 5.88635 55.2406 9.06162 59.2997 15.4121C63.3588 21.7627 65.3883 30.6338 65.3883 42.0255ZM33.5702 42.0255C33.5702 48.8998 33.9957 54.1046 34.8468 57.6399C35.6979 61.1098 37.4329 62.8447 40.0517 62.8447C42.6704 62.8447 44.4054 61.1098 45.2565 57.6399C46.1076 54.17 46.5331 48.9652 46.5331 42.0255C46.5331 35.0857 46.1076 29.8482 45.2565 26.3128C44.4054 22.7775 42.6704 21.0098 40.0517 21.0098C37.4329 21.0098 35.6979 22.7775 34.8468 26.3128C33.9957 29.8482 33.5702 35.0857 33.5702 42.0255Z" fill="#EBA742"/>
<mask id="mask0" mask-type="alpha" maskUnits="userSpaceOnUse" x="14" y="5" width="52" height="73">
<path d="M65.3885 42.0255C65.3885 49.489 64.5702 55.905 62.9334 61.2735C61.3622 66.642 58.7106 70.7665 54.9789 73.6472C51.3126 76.5279 46.3369 77.9682 40.0519 77.9682C31.279 77.9682 24.863 74.7929 20.8039 68.4424C16.7448 62.0918 14.7152 53.2862 14.7152 42.0255C14.7152 34.431 15.5008 27.9495 17.0721 22.5811C18.7088 17.2126 21.3931 13.088 25.1248 10.2073C28.8566 7.32668 33.8323 5.88635 40.0519 5.88635C48.8248 5.88635 55.2408 9.06162 59.2999 15.4121C63.359 21.7627 65.3885 30.6338 65.3885 42.0255ZM33.5704 42.0255C33.5704 48.8998 33.9959 54.1046 34.8471 57.6399C35.6982 61.1098 37.4331 62.8447 40.0519 62.8447C42.6706 62.8447 44.4056 61.1098 45.2567 57.6399C46.1078 54.17 46.5333 48.9652 46.5333 42.0255C46.5333 35.0857 46.1078 29.8482 45.2567 26.3128C44.4056 22.7775 42.6706 21.0098 40.0519 21.0098C37.4331 21.0098 35.6982 22.7775 34.8471 26.3128C33.9959 29.8482 33.5704 35.0857 33.5704 42.0255Z" fill="#EBA742"/>
</mask>
<g mask="url(#mask0)">
<path d="M57.0809 59.6739C63.1915 44.7793 61.5365 22.5965 59.9452 13.3669L71.88 24.3469L73.3122 61.5835C71.0844 69.6991 62.4277 85.644 45.6235 84.4983C28.8193 83.3525 17.2983 76.0644 13.6383 72.5635C27.96 77.3374 49.4426 78.2922 57.0809 59.6739Z" fill="#E09627"/>
</g>
<path d="M30.0294 63.9882C33.8676 66.8369 44.2919 67.2647 50.4594 63.9878C49.1555 67.9004 44.6774 73.8177 39.6663 73.8177C35.3243 73.8177 29.821 65.9937 30.0294 63.9882Z" fill="#A86500"/>
<path d="M35.6191 71.8901C38.8956 69.1922 43.0015 70.5507 44.8704 71.6978C44.2194 72.5748 40.8995 74.0065 39.4495 73.8903C37.9996 73.7742 36.1232 72.5043 35.6191 71.8901Z" fill="#D48207"/>
<path fill-rule="evenodd" clip-rule="evenodd" d="M15.1254 21.9993L15.1287 21.9885C16.8644 16.2955 19.7582 11.7833 23.8834 8.59892C28.0698 5.36734 33.5266 3.85449 40.052 3.85449C49.3852 3.85449 56.5131 7.27938 61.012 14.3178C65.361 21.1221 67.4204 30.4307 67.4204 42.0254C67.4204 49.623 66.589 56.2456 64.8803 61.8552C63.212 67.5485 60.3523 72.0636 56.227 75.2505C52.0968 78.4924 46.6308 79.9999 40.052 79.9999C30.7188 79.9999 23.5908 76.575 19.092 69.5366C14.7449 62.7354 12.6835 53.4947 12.6835 42.0254C12.6835 34.3018 13.4812 27.6169 15.1222 22.0103L15.1254 21.9993ZM54.979 73.6471C58.7108 70.7665 61.3623 66.6419 62.9335 61.2734C64.5703 55.9049 65.3886 49.4889 65.3886 42.0254C65.3886 30.6337 63.3591 21.7626 59.3 15.4121C55.2409 9.06157 48.8249 5.8863 40.052 5.8863C33.8324 5.8863 28.8567 7.32663 25.1249 10.2073C21.3932 13.0879 18.7089 17.2125 17.0722 22.581C15.5009 27.9495 14.7153 34.431 14.7153 42.0254C14.7153 53.2862 16.7449 62.0918 20.804 68.4423C24.8631 74.7929 31.2791 77.9681 40.052 77.9681C46.337 77.9681 51.3127 76.5278 54.979 73.6471ZM36.8215 57.16C36.0283 53.8623 35.6023 48.8515 35.6023 42.0254C35.6023 35.129 36.0289 30.085 36.8225 26.7883C37.1997 25.2215 37.7203 24.2849 38.2368 23.7587C38.6984 23.2883 39.2532 23.0415 40.052 23.0415C40.8507 23.0415 41.4055 23.2883 41.8672 23.7587C42.3836 24.2849 42.9042 25.2215 43.2814 26.7883C44.0751 30.085 44.5016 35.129 44.5016 42.0254C44.5016 48.9245 44.0746 53.9305 43.2835 57.1558C42.9084 58.6848 42.392 59.5954 41.8806 60.1068C41.4216 60.5657 40.8627 60.8129 40.052 60.8129C39.2413 60.8129 38.6823 60.5657 38.2234 60.1068C37.7124 59.5958 37.1964 58.6865 36.8215 57.16ZM34.8472 57.6399C33.9961 54.1045 33.5705 48.8997 33.5705 42.0254C33.5705 35.0857 33.9961 29.8481 34.8472 26.3128C35.6983 22.7774 37.4332 21.0097 40.052 21.0097C42.6707 21.0097 44.4057 22.7774 45.2568 26.3128C46.1079 29.8481 46.5334 35.0857 46.5334 42.0254C46.5334 48.9652 46.1079 54.17 45.2568 57.6399C44.4057 61.1097 42.6707 62.8447 40.052 62.8447C37.4332 62.8447 35.6983 61.1097 34.8472 57.6399Z" fill="#D58207"/>
<path d="M7.11935 34.3723C7.50127 32.0809 12.0524 27.6889 14.2802 25.7793L13.9167 30.8681C14.0425 30.7602 14.1639 30.655 14.2802 30.5532C14.1611 30.7149 14.0347 30.8886 13.9021 31.0731L13.3254 39.1463V50.6037C11.7341 54.5819 8.16961 61.8701 6.64196 59.1967C5.11431 56.5233 10.1427 45.6706 12.8479 40.5784C10.1426 44.0793 5.01864 49.9353 6.16438 45.3523C7.24884 41.0145 11.5553 34.3386 13.9021 31.0731L13.9167 30.8681C11.2889 33.1229 6.75489 36.5592 7.11935 34.3723Z" fill="#D48207"/>
<path d="M72.3574 34.3723C71.9755 32.0809 67.4243 27.6889 65.1965 25.7793L65.56 30.8681C65.4342 30.7602 65.3128 30.655 65.1965 30.5532C65.3157 30.7149 65.442 30.8886 65.5746 31.0731L66.1513 39.1463V50.6037C67.7426 54.5819 71.3071 61.8701 72.8348 59.1967C74.3624 56.5233 69.334 45.6706 66.6289 40.5784C69.3341 44.0793 74.4581 49.9353 73.3124 45.3523C72.2279 41.0145 67.9214 34.3386 65.5746 31.0731L65.56 30.8681C68.1879 33.1229 72.7219 36.5592 72.3574 34.3723Z" fill="#D48207"/>
<ellipse cx="47.7611" cy="15.0331" rx="6.93848" ry="7.32396" fill="white"/>
<circle cx="45.8339" cy="14.2628" r="2.6983" fill="#161E33"/>
<ellipse rx="6.93848" ry="7.32396" transform="matrix(-1 0 0 1 32.3428 15.0331)" fill="white"/>
<circle r="2.6983" transform="matrix(-1 0 0 1 34.27 14.2628)" fill="#161E33"/>
<path d="M34.0773 3.0942C27.0156 0.217203 23.7988 3.23707 22.7103 5.94524C22.5629 6.31203 23.0185 6.54677 23.3089 6.27856C27.4796 2.42632 33.9067 3.02564 34.0773 3.0942Z" fill="#161E33"/>
<path d="M44.0961 3.06055C50.5969 -0.925086 54.2614 1.53229 55.7753 4.02774C55.9803 4.36571 55.5689 4.67133 55.2388 4.45384C50.4978 1.33007 44.2533 2.9652 44.0961 3.06055Z" fill="#161E33"/>
</svg>
