<svg width="80" height="80" viewBox="0 0 80 80" fill="none" xmlns="http://www.w3.org/2000/svg">
<path d="M46.3025 8.61459L48.1175 12.9919L46.5566 13.9587L44.6462 9.31152C43.7809 9.88828 42.4512 10.2259 41.5182 9.37756C39.248 7.31339 43.8154 3.10193 47.1066 4.73093C49.7396 6.03412 48.0613 8.05487 46.3025 8.61459Z" fill="#FFAB48"/>
<path d="M57.7662 78.164H40.3715V46.8359C40.3715 46.2443 40.3715 45.1793 40.3715 43.641C40.3715 42.1027 40.4011 40.3869 40.4603 38.4936C40.5195 36.6003 40.5786 34.9141 40.6378 33.435C39.8686 34.3224 39.1587 35.0916 38.5078 35.7424C37.9162 36.3932 37.295 36.9849 36.6441 37.5174L29.4555 43.4635L20.5807 32.5475L42.324 14.7979H57.7662V78.164Z" fill="#FF9820"/>
<mask id="mask0" mask-type="alpha" maskUnits="userSpaceOnUse" x="20" y="14" width="38" height="65">
<path d="M57.7661 78.1637H40.3715V46.8356C40.3715 46.2439 40.3715 45.1789 40.3715 43.6406C40.3715 42.1023 40.4011 40.3865 40.4602 38.4932C40.5194 36.5999 40.5786 34.9137 40.6377 33.4346C39.8686 34.3221 39.1586 35.0912 38.5078 35.742C37.9161 36.3929 37.2949 36.9845 36.6441 37.517L29.4555 43.4631L20.5806 32.5471L42.3239 14.7975H57.7661V78.1637Z" fill="#FF9820"/>
</mask>
<g mask="url(#mask0)">
<path d="M51.3765 61.5679C57.8574 55.7351 58.1814 38.5608 57.8574 29.1636L60.4497 71.9373L58.1814 74.5297H37.4426V64.4843C39.6029 64.9164 44.8956 67.4007 51.3765 61.5679Z" fill="#ED8913"/>
</g>
<path d="M43.1522 39.2033C47.9042 40.3091 52.9638 36.1001 54.8996 33.8574C55.2704 38.0508 54.9121 46.3028 50.513 45.7639C46.1139 45.225 43.7728 41.1656 43.1522 39.2033Z" fill="#A65A00"/>
<path d="M48.0667 44.9919C47.896 41.5588 52.2858 41.328 54.5019 41.6417C54.2493 42.7275 53.3928 45.0194 51.9881 45.5005C50.5834 45.9816 48.7885 45.3619 48.0667 44.9919Z" fill="#E17A00"/>
<ellipse cx="42.0718" cy="23.1658" rx="4.7097" ry="4.97135" fill="white"/>
<circle cx="42.8566" cy="23.1658" r="2.0932" fill="#161E33"/>
<path fill-rule="evenodd" clip-rule="evenodd" d="M59.6024 80H38.5354V43.6409C38.5354 42.0797 38.5654 40.3443 38.625 38.4361C38.6273 38.3644 38.6295 38.2929 38.6318 38.2218C38.3636 38.4687 38.09 38.7066 37.8108 38.9351C37.8095 38.9362 37.8082 38.9373 37.8069 38.9384L29.199 46.0585L18 32.2838L41.6697 12.9615H59.6024V80ZM36.6441 37.5172C37.295 36.9848 37.9162 36.3931 38.5078 35.7423C38.5784 35.6717 38.6497 35.5997 38.7217 35.5263C39.3134 34.9232 39.9521 34.226 40.6378 33.4348C40.6026 34.3142 40.5674 35.2669 40.5323 36.2927C40.5083 36.9923 40.4843 37.7258 40.4603 38.4935C40.4011 40.3868 40.3716 42.1026 40.3716 43.6409V78.1639H57.7662V14.7977H42.324L20.5807 32.5473L29.4555 43.4634L36.6441 37.5172Z" fill="#E17A00"/>
<path d="M53.6786 7.69418L50.374 14.9119C50.374 14.9119 50.4042 15.8785 51.0523 16.2025C51.7004 16.5266 52.6727 16.2025 52.6727 16.2025L55.7844 8.64075C56.8779 9.40842 58.5753 9.88337 59.8 8.82268C62.78 6.2419 57.0442 0.690831 52.7663 2.68096C49.344 4.27307 51.4369 6.92066 53.6786 7.69418Z" fill="#FF9820"/>
</svg>
