<svg width="80" height="80" viewBox="0 0 80 80" fill="none" xmlns="http://www.w3.org/2000/svg">
<path fill-rule="evenodd" clip-rule="evenodd" d="M67.6437 80.0001H13.5564V64.8978L30.9437 47.3107C34.4111 43.6504 37.095 40.7422 39.0033 38.5795L39.0141 38.5673L39.0251 38.5552C40.9742 36.4174 42.2187 34.7064 42.8718 33.4003C43.511 32.1219 43.8209 30.8157 43.8209 29.4604C43.8209 27.8644 43.3289 27.1089 42.6812 26.6771L42.6623 26.6645L42.6437 26.6515C41.7384 26.0178 40.6065 25.6594 39.1497 25.6594C37.3467 25.6594 35.4879 26.1597 33.5506 27.2424C31.5194 28.3774 29.119 30.1217 26.3403 32.5215L24.8186 33.8357L12 18.8404L13.44 17.5354C15.5591 15.615 17.8084 13.7959 20.1872 12.0779L20.1977 12.0703L20.2083 12.0629C22.772 10.2613 25.7214 8.82643 29.0357 7.7426C32.4634 6.55629 36.5615 5.99438 41.2769 5.99438C46.2112 5.99438 50.5826 6.87214 54.3274 8.7061C58.026 10.4534 60.96 12.9004 63.0504 16.0665C65.2169 19.2495 66.29 22.8652 66.29 26.8497C66.29 31.0941 65.5022 34.9657 63.8803 38.4244C62.3513 41.7575 60.0219 45.0574 56.95 48.3298C54.0026 51.4737 50.3203 55.0568 45.9123 59.0759L45.909 59.0789L44.1983 60.6251H67.6437V80.0001ZM39.5364 62.6256V62.1421L44.5644 57.5976C48.9478 53.6011 52.5898 50.0557 55.4905 46.9616C58.4557 43.803 60.6474 40.6766 62.0656 37.5825C63.5482 34.4239 64.2895 30.8463 64.2895 26.8497C64.2895 23.2399 63.3226 20.0169 61.3887 17.1806C59.5194 14.3443 56.8765 12.1204 53.46 10.5089C50.0436 8.83289 45.9825 7.9949 41.2769 7.9949C36.7002 7.9949 32.8325 8.54282 29.6739 9.63866C26.5153 10.67 23.7435 12.0237 21.3584 13.6997C19.0378 15.3757 16.8462 17.1484 14.7834 19.0177L25.0327 31.0075C25.2428 30.826 25.4511 30.648 25.6577 30.4732C28.2397 28.2892 30.5453 26.6301 32.5747 25.4961C34.7663 24.2713 36.958 23.6589 39.1497 23.6589C40.9546 23.6589 42.5017 24.1102 43.7909 25.0126C45.1446 25.9151 45.8214 27.3977 45.8214 29.4604C45.8214 31.1364 45.4346 32.7479 44.6611 34.295C43.8876 35.8421 42.5017 37.7114 40.5034 39.9031C38.5695 42.0948 35.8622 45.0277 32.3813 48.702L15.5569 65.7197V77.9995H65.6432V62.6256H39.5364Z" fill="#643EFF"/>
<path d="M65.6435 78.0004H15.5573V65.7206L32.3816 48.7029C35.8625 45.0286 38.5698 42.0956 40.5037 39.9039C42.502 37.7123 43.8879 35.8429 44.6614 34.2958C45.4349 32.7488 45.8217 31.1372 45.8217 29.4612C45.8217 27.3985 45.1449 25.9159 43.7912 25.0134C42.502 24.111 40.9549 23.6598 39.15 23.6598C36.9583 23.6598 34.7666 24.2721 32.575 25.4969C30.3833 26.7216 27.8693 28.5588 25.033 31.0083L14.7837 19.0186C16.8465 17.1492 19.0382 15.3765 21.3588 13.7005C23.7438 12.0245 26.5156 10.6709 29.6742 9.63949C32.8328 8.54365 36.7005 7.99573 41.2772 7.99573C45.9829 7.99573 50.0439 8.83372 53.4603 10.5097C56.8768 12.1212 59.5197 14.3451 61.389 17.1814C63.3229 20.0177 64.2898 23.2408 64.2898 26.8506C64.2898 30.8472 63.5485 34.4247 62.0659 37.5833C60.6477 40.6775 58.4561 43.8038 55.4909 46.9624C52.5901 50.0565 48.9481 53.6019 44.5647 57.5985L39.5368 62.143V62.6264H65.6435V78.0004Z" fill="#8465FF"/>
<mask id="mask0" mask-type="alpha" maskUnits="userSpaceOnUse" x="14" y="7" width="52" height="71">
<path d="M65.6881 77.7827H15.6019V65.5029L32.4262 48.4852C35.9071 44.8109 38.6145 41.8779 40.5483 39.6863C42.5466 37.4946 43.9325 35.6252 44.706 34.0782C45.4796 32.5311 45.8663 30.9196 45.8663 29.2436C45.8663 27.1808 45.1895 25.6982 43.8358 24.7958C42.5466 23.8933 40.9995 23.4421 39.1946 23.4421C37.0029 23.4421 34.8113 24.0545 32.6196 25.2792C30.4279 26.504 27.9139 28.3411 25.0777 30.7907L14.8284 18.8009C16.8911 16.9315 19.0828 15.1589 21.4034 13.4829C23.7884 11.8069 26.5603 10.4532 29.7188 9.42183C32.8774 8.326 36.7451 7.77808 41.3218 7.77808C46.0275 7.77808 50.0885 8.61607 53.505 10.2921C56.9214 11.9036 59.5643 14.1275 61.4337 16.9638C63.3675 19.8001 64.3344 23.0231 64.3344 26.6329C64.3344 30.6295 63.5931 34.2071 62.1105 37.3657C60.6924 40.4598 58.5007 43.5862 55.5355 46.7448C52.6347 49.8389 48.9927 53.3842 44.6093 57.3808L39.5814 61.9253V62.4088H65.6881V77.7827Z" fill="#8465FF"/>
</mask>
<g mask="url(#mask0)">
<path d="M40.2835 61.8698C26.429 65.9245 18.0103 74.5281 16.9496 79.242L68.5669 79.242V61.1632C64.6779 58.8062 54.7787 57.6277 40.2835 61.8698Z" fill="#6E4CF4"/>
<path d="M60.789 28.6371C60.5421 20.9836 56.3108 12.4919 54.4252 9.89929L62.5567 11.667L70.3347 19.0914L66.0921 39.9504L56.1929 57.9811L40.2835 61.8701C47.3544 53.5029 61.1425 39.5969 60.789 28.6371Z" fill="#6E4CF4"/>
</g>
<path d="M48.6826 30.4021C52.2224 30.4021 55.1056 26.5959 56.1048 24.6927C57.0563 27.595 58.1601 33.4852 54.9629 33.8278C51.7656 34.1703 49.4438 31.6868 48.6826 30.4021Z" fill="#4223BC"/>
<path d="M53.1074 33.685C52.4222 31.2871 55.4863 30.4021 57.1039 30.2594C57.1039 31.0682 56.8756 32.8286 55.962 33.3996C55.0485 33.9705 53.6783 33.8278 53.1074 33.685Z" fill="#684AE0"/>
<ellipse cx="23.8625" cy="14.7898" rx="6.5658" ry="6.93056" transform="rotate(-18.6443 23.8625 14.7898)" fill="white"/>
<circle cx="26.0846" cy="14.9267" r="2.91813" transform="rotate(-18.6443 26.0846 14.9267)" fill="#161E33"/>
<ellipse rx="6.5658" ry="6.93056" transform="matrix(-0.947522 0.319692 0.319692 0.947522 43.0197 11.6505)" fill="white"/>
<circle r="2.91813" transform="matrix(-0.947522 0.319692 0.319692 0.947522 42.5373 12.7005)" fill="#161E33"/>
</svg>
