<svg id="fef6bcc1-bbde-43a4-af2c-2e567ca191a0" data-name="Layer 1" xmlns="http://www.w3.org/2000/svg" xmlns:xlink="http://www.w3.org/1999/xlink" viewBox="0 0 220 280"><defs><mask id="be528a2e-252d-452f-92e4-6fc1d2559d91" x="21.92" y="8.14" width="219.6" height="268.73" maskUnits="userSpaceOnUse"><g id="a131e163-226e-4dfc-bdf1-b8aea10b3642" data-name="mask0"><path id="ab4b0d16-df65-4d7a-b2ae-402da499e3ef" data-name="4" d="M205.39,65.29q0,17.67-7.62,30.48a66.28,66.28,0,0,1-20.09,20.79,95.56,95.56,0,0,1-27,12.12v1q29.79,3.47,45.72,18,16.28,14.21,16.28,40.53a66.44,66.44,0,0,1-11.09,37.06q-10.72,17-33.59,27-22.52,10-58.54,10-23.9,0-40.87-3.46a225.37,225.37,0,0,1-32.91-10.05V193.45a153.07,153.07,0,0,0,33.25,12.47,141.93,141.93,0,0,0,30.83,3.81q24.59,0,33.25-6.93,9-6.92,9-18.7a22.69,22.69,0,0,0-4.5-14.2q-4.17-6.24-15.59-9.35-11.08-3.12-32.56-3.12H74.12V107.21H89.71q28.4,0,39.48-7.28,11.43-7.28,11.43-18.7,0-10-7.62-14.55-7.62-4.85-20.09-4.85A70.84,70.84,0,0,0,91.78,65a108.17,108.17,0,0,0-17,6.92,110.42,110.42,0,0,0-11.08,5.89L36,33.08A159.49,159.49,0,0,1,71,15.42q20.09-7.27,52.3-7.28,38.1,0,59.93,15.24Q205.4,38.62,205.39,65.29Z" style="fill:#ff6dce"/></g></mask></defs><g id="ad9d790c-94df-45c9-b385-8cf5eca7d939" data-name="3"><ellipse id="a14289a9-98a8-4d97-ad80-f57a3a49889c" data-name="Ellipse 177" cx="126.06" cy="267.94" rx="82.22" ry="12.06" style="fill:#dbdbee"/><g id="b735b67f-8a6c-4a71-9458-329b2bcd5f20" data-name="Group 329"><g id="ad6ebd3a-3bff-4c5d-bb5c-932266e926ef" data-name="Group 299"><path id="a18c7c5b-7b9a-4f0d-9c94-d39ef1a5e013" data-name="3 (Stroke)" d="M203.91,98.5l0,0a73.46,73.46,0,0,1-22.23,23l0,0h0q-3.83,2.5-7.88,4.66c10.8,3.42,20,8.42,27.42,15.18,12.71,11.12,18.67,26.77,18.67,45.87a73.56,73.56,0,0,1-12.22,40.94c-8.09,12.76-20.52,22.57-36.72,29.69S134,268.57,109.45,268.57c-16.25,0-30.38-1.17-42.31-3.61h-.07l-.06,0a231.85,231.85,0,0,1-33.95-10.36l-4.56-1.78v-72l10.43,5.32A145.69,145.69,0,0,0,70.56,198a134.83,134.83,0,0,0,29.19,3.62A96.42,96.42,0,0,0,118.9,200c5-1,8-2.45,9.62-3.78l.06,0,0,0c4.17-3.21,6.21-7.3,6.21-13a15.54,15.54,0,0,0-3-9.84l-.14-.19-.13-.19c-1.39-2.08-4.64-4.54-11.51-6.41h0c-6.43-1.81-16.5-2.85-30.62-2.85H67V99.06H89.7c18.81,0,30.08-2.5,35.56-6.1l0,0,0,0c6-3.82,8.12-8,8.12-12.66s-1.54-6.86-4.11-8.38l-.1-.06-.1-.06c-3.57-2.27-8.79-3.73-16.24-3.73a63.63,63.63,0,0,0-19,2.79,99.24,99.24,0,0,0-15.8,6.44l-.13.06-.12.06a104.06,104.06,0,0,0-10.32,5.46l-6.11,3.9L26.31,30.05,32,26.18A166.94,166.94,0,0,1,68.52,7.72h0C83,2.46,101.37,0,123.3,0c26.25,0,47.84,5.23,64,16.52C204,28,212.56,44.16,212.56,64.32c0,12.82-2.78,24.3-8.63,34.14ZM91.78,64a70.84,70.84,0,0,1,21.13-3.12q12.47,0,20.09,4.85,7.62,4.51,7.62,14.55,0,11.43-11.43,18.71-11.09,7.28-39.49,7.27H74.12v50.22H89.36q21.47,0,32.56,3.12,11.43,3.12,15.58,9.35a22.66,22.66,0,0,1,4.51,14.2q0,11.79-9,18.71-8.66,6.93-33.25,6.93A141.93,141.93,0,0,1,68.92,205a151.52,151.52,0,0,1-26.08-9q-3.6-1.62-7.17-3.44V247.9a226.57,226.57,0,0,0,32.91,10q17,3.46,40.87,3.47,36,0,58.54-10.05,22.86-10.05,33.59-27a66.42,66.42,0,0,0,11.09-37.06q0-26.33-16.28-40.52-12.28-11.22-32.8-15.85A123.72,123.72,0,0,0,151,128.78l-.3,0v-1l.12,0a101.56,101.56,0,0,0,12.14-4.23,90.75,90.75,0,0,0,14.75-7.86A66.25,66.25,0,0,0,197.77,94.8q7.62-12.81,7.62-30.48,0-26.67-22.16-41.91Q161.41,7.17,123.3,7.17q-32.2,0-52.3,7.27A160,160,0,0,0,36,32.11L63.73,76.79h0l.89-.56Q68.34,74,74.81,70.9A108.14,108.14,0,0,1,91.78,64Z" style="fill:#ff6dcd;fill-rule:evenodd"/><path id="a817c131-e485-49e3-8f3e-824827165115" data-name="Vector 358" d="M40.11,158.63C26.46,163.25,25.87,180,27.27,187.86l5.06,2.8C40.61,178.06,53.75,154,40.11,158.63Z" style="fill:#ff6dcd"/><path id="b96d528a-231c-43d5-9d90-fb48249fa0a5" data-name="Vector 359" d="M3.61,171.94c13.16-5.85,25,6.1,29.25,12.8L31,190.23C16.41,186.57-9.55,177.79,3.61,171.94Z" style="fill:#ff6dcd"/><path id="fbaf1ce0-6cd6-4e4a-886b-ec6bebd7be33" data-name="Vector 360" d="M3.34,204.12C6,190,22.53,187,30.47,187.29L34,191.91C22.64,201.88.69,218.28,3.34,204.12Z" style="fill:#ff6dcd"/><path id="a492cf91-ccfe-4fca-9f9e-6723adda5dbb" data-name="3_2" d="M205.39,64.32q0,17.66-7.62,30.48a66.25,66.25,0,0,1-20.09,20.78,95.87,95.87,0,0,1-27,12.13v1q29.78,3.47,45.72,18,16.28,14.19,16.28,40.52a66.42,66.42,0,0,1-11.09,37.06q-10.72,17-33.59,27-22.52,10-58.54,10-23.91,0-40.87-3.46a226.57,226.57,0,0,1-32.91-10V192.48A153.07,153.07,0,0,0,68.92,205a141.93,141.93,0,0,0,30.83,3.81q24.59,0,33.25-6.93,9-6.93,9-18.71a22.66,22.66,0,0,0-4.51-14.2q-4.16-6.22-15.58-9.35-11.08-3.12-32.56-3.12H74.12V106.23H89.7q28.41,0,39.49-7.27,11.43-7.27,11.43-18.71,0-10.05-7.62-14.55-7.62-4.85-20.09-4.85A70.84,70.84,0,0,0,91.78,64a108.14,108.14,0,0,0-17,6.93,108.38,108.38,0,0,0-11.08,5.89L36,32.11A160,160,0,0,1,71,14.44q20.09-7.27,52.3-7.27,38.1,0,59.93,15.24Q205.39,37.65,205.39,64.32Z" style="fill:#ff6dce"/><g id="a1d24315-a1ae-44ab-81b0-4475f03787b5" data-name="Mask Group"><g style="mask:url(#be528a2e-252d-452f-92e4-6fc1d2559d91)"><path id="bae844e2-9363-40c1-b900-2cc6e01aec28" data-name="Vector 338" d="M187.45,77.2c5.26-18.41-9.13-58.46-16.44-66.87L222.53,18l7.67,62.48L182,122.15l-28.5,5.48C166.62,114.47,182.19,95.62,187.45,77.2Z" style="fill:#f159bd"/><path id="b93d0b65-b8c5-4c4f-bea1-371633dbb534" data-name="Vector 337" d="M167.72,224.09c40.56-28.5,29.38-67.07,22.8-86.44,9.5-.73,31.13.66,41.66,12.06C245.33,164,242,198,237.66,216.58s-20.83,37.27-54.81,52.62S61.17,273.58,36,264.81c-20.17-7-14.25-18.27-8.77-23C55.69,251.66,128.81,251.43,167.72,224.09Z" style="fill:#f159bd"/></g></g><g id="b6744bce-5e39-421d-9026-744194216631" data-name="Group 324"><path id="badbe957-8a27-4b8a-a0ae-54f193e60bcf" data-name="Vector 326" d="M99,125.06c16.08,3.74,33.2-10.49,39.74-18.08,1.26,14.18,0,42.1-14.84,40.28S101.1,131.7,99,125.06Z" style="fill:#b9007a"/><path id="adae64b8-8990-4a22-b903-2d41396288e3" data-name="Vector 327" d="M115.63,144.65c-.58-11.62,14.27-12.4,21.77-11.34-.86,3.68-3.75,11.43-8.51,13.06S118.07,145.9,115.63,144.65Z" style="fill:#e634a9"/></g></g><g id="e3319493-76dc-4925-8926-ff59751be16f" data-name="Group 319"><ellipse id="b30c2906-b662-4571-a6a9-0e2a531900cf" data-name="Ellipse 172" cx="139.52" cy="35.73" rx="28.87" ry="24.52" transform="translate(56.52 153.42) rotate(-69.17)" style="fill:#fff"/><circle id="ba104a03-bcd9-41ea-b9de-8afc39126a79" data-name="Ellipse 174" cx="142.16" cy="30.32" r="7.62" style="fill:#161e33"/></g><g id="ad1d5125-1eaa-4023-b464-7007bf49e708" data-name="Group 320"><ellipse id="bcb9405c-f47b-43ab-b4d0-d9138322b187" data-name="Ellipse 172_2" cx="90.24" cy="29.98" rx="20.65" ry="17.53" transform="translate(30.13 103.66) rotate(-69.17)" style="fill:#fff"/><circle id="f6182995-0aff-4fa1-9486-b52be4d0a65c" data-name="Ellipse 174_2" cx="92.13" cy="26.12" r="3.9" style="fill:#161e33"/></g></g></g></svg>