<svg width="72" height="72" viewBox="0 0 72 72" fill="none" xmlns="http://www.w3.org/2000/svg">
<path d="M18.9941 44.6031C15.5946 45.7542 15.4457 49.9389 15.7962 51.8874L17.0577 52.5838C19.1196 49.4439 22.3936 43.452 18.9941 44.6031Z" fill="#E634A9"/>
<path d="M9.90006 47.9206C13.1798 46.4629 16.1255 49.439 17.1884 51.1092L16.7329 52.4762C13.0887 51.565 6.62029 49.3782 9.90006 47.9206Z" fill="#E634A9"/>
<path d="M9.83187 55.9394C10.4918 52.4114 14.6137 51.6737 16.5922 51.7458L17.4596 52.8963C14.642 55.3806 9.17191 59.4673 9.83187 55.9394Z" fill="#E634A9"/>
<path d="M60.183 21.101C60.183 24.0357 59.55 26.5676 58.2841 28.6967C57.0181 30.7682 55.3494 32.4945 53.2778 33.8756C51.2638 35.1991 49.0196 36.2061 46.5453 36.8966V37.1555C51.494 37.731 55.2918 39.2271 57.9388 41.6439C60.6434 44.0032 61.9956 47.3694 61.9956 51.7427C61.9956 55.0802 61.0749 58.1588 59.2336 60.9784C57.4497 63.798 54.6589 66.0422 50.861 67.7109C47.1207 69.3797 42.2583 70.2141 36.2738 70.2141C32.3034 70.2141 28.9083 69.9264 26.0887 69.3509C23.2691 68.7179 20.5358 67.8836 17.8888 66.8478V53.0374C20.5933 54.4185 23.3554 55.4543 26.175 56.1448C28.9946 56.7778 31.5553 57.0942 33.857 57.0942C37.9426 57.0942 40.7047 56.5188 42.1432 55.3679C43.6394 54.2171 44.3874 52.6634 44.3874 50.7069C44.3874 49.3259 44.0134 48.1463 43.2653 47.168C42.5748 46.1323 41.2801 45.3554 39.3812 44.8375C37.5398 44.3197 34.8353 44.0607 31.2676 44.0607H27.4697V31.5451H31.3539C36.0724 31.5451 39.3524 30.9409 41.1938 29.7325C43.0927 28.5241 44.0422 26.9704 44.0422 25.0715C44.0422 23.4027 43.4092 22.1943 42.1432 21.4463C40.8773 20.6407 39.2085 20.2379 37.137 20.2379C35.2956 20.2379 33.5405 20.4968 31.8718 21.0147C30.2606 21.5326 28.8508 22.108 27.6424 22.741C26.434 23.3164 25.5133 23.8055 24.8803 24.2083L17.9751 13.0737C20.507 11.3474 23.4129 9.88009 26.6929 8.67168C30.0304 7.46327 34.3749 6.85907 39.7264 6.85907C46.0562 6.85907 51.0337 8.12502 54.6589 10.6569C58.3416 13.1888 60.183 16.6702 60.183 21.101Z" fill="#FF6DCE"/>
<mask id="mask0" mask-type="alpha" maskUnits="userSpaceOnUse" x="17" y="7" width="45" height="64">
<path d="M60.1831 21.344C60.1831 24.2787 59.5502 26.8106 58.2842 28.9397C57.0183 31.0113 55.3495 32.7376 53.278 34.1186C51.2639 35.4421 49.0198 36.4491 46.5454 37.1396V37.3986C51.4941 37.974 55.292 39.4701 57.939 41.887C60.6435 44.2462 61.9957 47.6125 61.9957 51.9858C61.9957 55.3233 61.0751 58.4018 59.2337 61.2214C57.4498 64.0411 54.659 66.2852 50.8611 67.954C47.1208 69.6227 42.2584 70.4571 36.274 70.4571C32.3035 70.4571 28.9084 70.1694 26.0888 69.594C23.2692 68.961 20.5359 68.1266 17.8889 67.0909V53.2805C20.5934 54.6615 23.3555 55.6973 26.1751 56.3878C28.9947 57.0208 31.5554 57.3373 33.8571 57.3373C37.9427 57.3373 40.7048 56.7619 42.1434 55.611C43.6395 54.4601 44.3875 52.9065 44.3875 50.95C44.3875 49.569 44.0135 48.3893 43.2654 47.4111C42.5749 46.3753 41.2802 45.5985 39.3813 45.0806C37.5399 44.5627 34.8354 44.3038 31.2677 44.3038H27.4699V31.7881H31.354C36.0726 31.7881 39.3525 31.1839 41.1939 29.9755C43.0928 28.7671 44.0423 27.2134 44.0423 25.3145C44.0423 23.6458 43.4093 22.4374 42.1434 21.6893C40.8774 20.8837 39.2087 20.4809 37.1371 20.4809C35.2957 20.4809 33.5407 20.7398 31.8719 21.2577C30.2607 21.7756 28.8509 22.351 27.6425 22.984C26.4341 23.5595 25.5134 24.0486 24.8804 24.4514L17.9752 13.3168C20.5071 11.5905 23.4131 10.1231 26.693 8.91472C30.0305 7.70632 34.375 7.10211 39.7265 7.10211C46.0563 7.10211 51.0338 8.36806 54.659 10.9C58.3418 13.4319 60.1831 16.9132 60.1831 21.344Z" fill="#FF6DCE"/>
</mask>
<g mask="url(#mask0)">
<path d="M55.7117 24.3117C57.0229 19.7225 53.4353 9.74278 51.6142 7.6485L64.4531 9.56067L66.3652 25.1312L54.3459 35.5116L47.2435 36.8774C50.5215 33.5994 54.4005 28.9009 55.7117 24.3117Z" fill="#F159BD"/>
<path d="M50.7946 60.916C60.9018 53.8137 58.1162 44.2018 56.4772 39.3759C58.8447 39.1938 64.2352 39.5398 66.8576 42.3807C70.1356 45.9319 69.3161 54.4001 68.2235 59.0439C67.1308 63.6878 63.0333 68.3316 54.5651 72.156C46.0969 75.9803 24.2435 73.2486 17.9606 71.0633C12.9344 69.315 14.4095 66.5105 15.7753 65.3268C22.8777 67.7853 41.0986 67.7295 50.7946 60.916Z" fill="#F159BD"/>
</g>
<path d="M33.6712 36.2383C37.6771 37.1705 41.9423 33.6223 43.5741 31.7317C43.8867 35.2667 43.5847 42.2231 39.8763 41.7688C36.1678 41.3145 34.1943 37.8925 33.6712 36.2383Z" fill="#B9007A"/>
<path d="M37.8141 41.1185C37.6702 38.2244 41.3708 38.0298 43.239 38.2943C43.026 39.2096 42.304 41.1417 41.1198 41.5472C39.9357 41.9527 38.4226 41.4304 37.8141 41.1185Z" fill="#E634A9"/>
<ellipse cx="44.1169" cy="8.8972" rx="6.10906" ry="7.19512" transform="rotate(20.83 44.1169 8.8972)" fill="white"/>
<circle cx="44.7749" cy="7.54971" r="1.89895" transform="rotate(20.83 44.7749 7.54971)" fill="#161E33"/>
<ellipse cx="31.8363" cy="7.4662" rx="4.36921" ry="5.14596" transform="rotate(20.83 31.8363 7.4662)" fill="white"/>
<ellipse cx="32.3068" cy="6.50261" rx="0.970935" ry="0.970935" transform="rotate(20.83 32.3068 6.50261)" fill="#161E33"/>
</svg>
