<svg width="80" height="80" viewBox="0 0 80 80" fill="none" xmlns="http://www.w3.org/2000/svg">
<path fill-rule="evenodd" clip-rule="evenodd" d="M19.6704 73.5236V54.8691L22.35 56.0679C24.5615 57.0572 27.2485 57.9762 30.4274 58.8159C33.5552 59.6421 36.3626 60.0402 38.8617 60.0402C41.8624 60.0402 43.8972 59.3864 45.2203 58.3371C46.4552 57.3577 47.1668 55.9055 47.1668 53.6664C47.1668 51.6868 46.4785 50.3071 45.153 49.2908L45.1406 49.2813L45.1283 49.2716C43.835 48.2459 41.644 47.5684 38.218 47.5684C36.705 47.5684 35.2239 47.7364 33.7719 48.0714L33.7446 48.0777L33.7172 48.0832C32.2308 48.3805 30.9107 48.7041 29.7526 49.0515L29.0358 49.2665L20.6874 45.1511L23.3883 7.43848H64.4904V26.0495H41.9703L41.5485 30.4551L42.0156 30.3675L42.0256 30.3657C43.2389 30.1516 44.9701 30.0609 47.1382 30.0609C51.1138 30.0609 54.7747 30.9587 58.0802 32.7801C61.4071 34.6133 64.0463 37.2626 65.9889 40.679C67.9672 44.158 68.9045 48.3329 68.9045 53.1146C68.9045 60.8711 66.5614 67.0871 61.6447 71.4575C56.7408 75.8165 49.5176 77.8236 40.3331 77.8236C32.5488 77.8236 25.985 76.602 20.7393 74.0447L19.6704 73.5236ZM39.4135 32.7912L40.2412 24.1469H62.5877V9.34112H25.1595L22.6766 44.0105L29.2058 47.2291C30.432 46.8613 31.8114 46.5241 33.3441 46.2175C34.9381 45.8497 36.5627 45.6658 38.218 45.6658C41.8352 45.6658 44.5327 46.3708 46.3106 47.7809C48.1498 49.1909 49.0694 51.1528 49.0694 53.6664C49.0694 56.3639 48.1805 58.4177 46.4026 59.8278C44.6246 61.2379 42.111 61.9429 38.8617 61.9429C36.1642 61.9429 33.1908 61.5137 29.9415 60.6554C27.5338 60.0194 25.3785 59.3329 23.4757 58.5959C22.8106 58.3383 22.1764 58.0746 21.5731 57.8046V72.3345C26.4776 74.7255 32.731 75.921 40.3331 75.921C49.284 75.921 55.9665 73.9591 60.3806 70.0355C64.7948 66.1118 67.0019 60.4715 67.0019 53.1146C67.0019 48.5779 66.1129 44.7462 64.335 41.6195C62.5571 38.4928 60.1661 36.1018 57.162 34.4465C54.1579 32.7912 50.8167 31.9636 47.1382 31.9636C44.9925 31.9636 43.3985 32.0555 42.3563 32.2394L39.4135 32.7912Z" fill="#0D96E2"/>
<path d="M47.1373 31.9642C50.8157 31.9642 54.157 32.7919 57.161 34.4472C60.1651 36.1025 62.5561 38.4935 64.334 41.6202C66.1119 44.7468 67.0009 48.5785 67.0009 53.1153C67.0009 60.4722 64.7938 66.1125 60.3797 70.0361C55.9655 73.9598 49.283 75.9216 40.3322 75.9216C32.73 75.9216 26.4767 74.7262 21.5721 72.3352V57.8053C23.9018 58.8475 26.6913 59.7978 29.9405 60.6561C33.1898 61.5144 36.1632 61.9436 38.8608 61.9436C42.1101 61.9436 44.6237 61.2385 46.4016 59.8284C48.1795 58.4184 49.0685 56.3646 49.0685 53.6671C49.0685 51.1535 48.1488 49.1916 46.3096 47.7815C44.5317 46.3715 41.8342 45.6664 38.217 45.6664C36.5617 45.6664 34.9371 45.8504 33.3431 46.2182C31.8104 46.5247 30.431 46.8619 29.2049 47.2298L22.6756 44.0111L25.1586 9.3418H62.5868V24.1475H40.2402L39.4125 32.7919C40.3935 32.608 41.3744 32.424 42.3553 32.2401C43.3975 32.0562 44.9915 31.9642 47.1373 31.9642Z" fill="#50C0FF"/>
<mask id="mask0" mask-type="alpha" maskUnits="userSpaceOnUse" x="21" y="9" width="47" height="67">
<path d="M47.1373 31.9661C50.8158 31.9661 54.157 32.7937 57.1611 34.449C60.1652 36.1043 62.5562 38.4953 64.3341 41.622C66.112 44.7487 67.0009 48.5804 67.0009 53.1171C67.0009 60.474 64.7939 66.1143 60.3797 70.038C55.9656 73.9616 49.2831 75.9235 40.3322 75.9235C32.7301 75.9235 26.4767 74.728 21.5721 72.337V57.8071C23.9018 58.8494 26.6913 59.7996 29.9406 60.6579C33.1899 61.5162 36.1633 61.9454 38.8608 61.9454C42.1101 61.9454 44.6237 61.2404 46.4016 59.8303C48.1796 58.4202 49.0685 56.3664 49.0685 53.6689C49.0685 51.1553 48.1489 49.1935 46.3097 47.7834C44.5318 46.3733 41.8342 45.6683 38.2171 45.6683C36.5618 45.6683 34.9372 45.8522 33.3432 46.22C31.8105 46.5266 30.4311 46.8638 29.2049 47.2316L22.6757 44.013L25.1586 9.34363H62.5868V24.1494H40.2403L39.4126 32.7937C40.3935 32.6098 41.3744 32.4259 42.3554 32.2419C43.3976 32.058 44.9916 31.9661 47.1373 31.9661Z" fill="#50C0FF"/>
</mask>
<g mask="url(#mask0)">
<ellipse cx="59.7325" cy="37.7957" rx="1.46995" ry="1.95993" transform="rotate(-37.6027 59.7325 37.7957)" fill="#78DFFF"/>
<ellipse cx="64.5814" cy="52.6342" rx="2.20111" ry="2.93481" transform="rotate(-6.05436 64.5814 52.6342)" fill="#78DFFF"/>
<ellipse cx="55.896" cy="62.0039" rx="3.39271" ry="4.52361" transform="rotate(21.3908 55.896 62.0039)" fill="#78DFFF"/>
<ellipse cx="46.2362" cy="71.517" rx="2.47489" ry="3.29986" transform="rotate(76.4098 46.2362 71.517)" fill="#78DFFF"/>
<ellipse cx="59.1834" cy="19.0126" rx="1.55925" ry="2.07899" transform="rotate(128.598 59.1834 19.0126)" fill="#78DFFF"/>
<g style="mix-blend-mode:multiply">
<path d="M31.4512 76.5825C66.9535 67.1571 58.2874 42.5463 49.5165 31.4191L63.6546 30.6337C67.1892 32.5973 74.4939 38.8024 75.4364 47.9136C76.6146 59.3026 65.6183 77.7607 53.4438 79.7243C43.7042 81.2952 34.7239 78.2843 31.4512 76.5825Z" fill="#2AABF3" fill-opacity="0.5"/>
</g>
<g style="mix-blend-mode:multiply">
<path d="M46.3741 24.7437C49.2017 22.2303 57.5013 12.4384 61.2977 7.85657L62.8686 8.64202L62.4758 25.1365L46.3741 24.7437Z" fill="#2AABF3" fill-opacity="0.5"/>
</g>
</g>
<circle cx="27.5245" cy="21.2065" r="1.5709" fill="#78DFFF"/>
<ellipse cx="27.8659" cy="35.7869" rx="2.15222" ry="2.86963" transform="rotate(39.2856 27.8659 35.7869)" fill="#78DFFF"/>
<ellipse cx="34.1485" cy="26.3594" rx="2.15222" ry="2.86963" transform="rotate(-37.6027 34.1485 26.3594)" fill="#78DFFF"/>
<ellipse cx="52.6631" cy="48.0053" rx="2.59762" ry="3.4635" transform="rotate(-6.05436 52.6631 48.0053)" fill="#78DFFF"/>
<ellipse cx="30.7845" cy="64.0678" rx="2.07692" ry="2.76923" transform="rotate(72.7901 30.7845 64.0678)" fill="#78DFFF"/>
<ellipse cx="24.6251" cy="70.8487" rx="1.55925" ry="2.079" transform="rotate(128.598 24.6251 70.8487)" fill="#78DFFF"/>
<path d="M32.9516 35.4601C36.1091 37.8037 44.6846 38.1555 49.7583 35.4598C48.6856 38.6786 45.0017 43.5464 40.8793 43.5464C37.3074 43.5464 32.7802 37.11 32.9516 35.4601Z" fill="#006EAB"/>
<path d="M37.5496 41.9606C40.245 39.7411 43.6228 40.8587 45.1602 41.8024C44.6247 42.5238 41.8936 43.7016 40.7008 43.6061C39.508 43.5105 37.9644 42.4659 37.5496 41.9606Z" fill="#0D96E2"/>
<ellipse cx="35.8138" cy="9.18301" rx="7.13491" ry="8.40334" fill="white"/>
<path d="M41.6897 4.34075C36.4456 3.82373 31.269 8.40553 28.9897 11.1722C28.8286 11.3677 28.528 11.3646 28.3994 11.1464C26.8212 8.47045 27.3489 3.03411 32.008 0.779952C36.5439 -1.41463 40.8548 1.47665 42.0746 3.84659C42.2065 4.10288 41.9766 4.36903 41.6897 4.34075Z" fill="#77CEFF"/>
<circle cx="36.6067" cy="7.75741" r="1.58554" fill="#161E33"/>
<ellipse rx="7.13491" ry="8.40334" transform="matrix(-1 0 0 1 52.9377 9.32937)" fill="white"/>
<path d="M47.0613 4.48711C52.3055 3.97009 57.482 8.55189 59.7613 11.3185C59.9224 11.514 60.223 11.511 60.3517 11.2928C61.9298 8.61681 61.4021 3.18047 56.7431 0.926314C52.2071 -1.26827 47.8962 1.62302 46.6765 3.99295C46.5446 4.24924 46.7745 4.51539 47.0613 4.48711Z" fill="#77CEFF"/>
<circle r="1.58554" transform="matrix(-1 0 0 1 52.1449 7.90377)" fill="#161E33"/>
</svg>
