<svg width="80" height="80" viewBox="0 0 80 80" fill="none" xmlns="http://www.w3.org/2000/svg">
<path d="M15.9342 48.8983C15.9342 45.0965 16.2146 41.2948 16.7755 37.493C17.3365 33.6912 18.3337 30.1076 19.7671 26.7421C21.2006 23.3766 23.2261 20.4162 25.8437 17.8609C28.4613 15.2433 31.7957 13.1866 35.8467 11.6908C39.9601 10.195 44.9772 9.44714 50.898 9.44714C52.2068 9.44714 53.7961 9.54063 55.6658 9.72761C57.5978 9.85225 59.1871 10.0081 60.4336 10.195V24.3114C59.1871 24.0621 57.7848 23.8752 56.2267 23.7505C54.6686 23.5636 52.7677 23.4701 50.524 23.4701C46.0367 23.4701 42.4842 24.1556 39.8666 25.5268C37.249 26.8356 35.3481 28.7676 34.164 31.3229C33.0421 33.8159 32.3877 36.8386 32.2008 40.3911H32.7617C33.9458 38.2097 35.5351 36.3712 37.5295 34.8754C39.5862 33.3796 42.3908 32.6317 45.9432 32.6317C51.8017 32.6317 56.3825 34.5326 59.6857 38.3344C62.9889 42.0738 64.6405 47.4025 64.6405 54.3205C64.6405 61.7994 62.5214 67.6267 58.2834 71.8024C54.1077 75.9781 48.3739 78.066 41.0819 78.066C36.3453 78.066 32.0761 77.0376 28.2743 74.9809C24.4726 72.8619 21.4499 69.6522 19.2062 65.3519C17.0248 61.0515 15.9342 55.567 15.9342 48.8983ZM40.708 63.7626C42.6401 63.7626 44.1982 63.0459 45.3823 61.6124C46.5665 60.1166 47.1586 57.8107 47.1586 54.6945C47.1586 52.1392 46.66 50.1448 45.6628 48.7113C44.6656 47.2779 43.0763 46.5612 40.895 46.5612C38.6513 46.5612 36.9062 47.309 35.6598 48.8048C34.4756 50.3006 33.8835 51.9522 33.8835 53.7596C33.8835 55.3177 34.1016 56.8758 34.5379 58.4339C35.0365 59.992 35.7844 61.2696 36.7816 62.2668C37.8411 63.264 39.1499 63.7626 40.708 63.7626Z" fill="#F15555"/>
<mask id="mask0" mask-type="alpha" maskUnits="userSpaceOnUse" x="15" y="9" width="50" height="70">
<path d="M15.9343 48.8985C15.9343 45.0968 16.2148 41.295 16.7757 37.4932C17.3366 33.6915 18.3338 30.1078 19.7672 26.7423C21.2007 23.3768 23.2262 20.4164 25.8438 17.8611C28.4614 15.2435 31.7958 13.1868 35.8468 11.6911C39.9602 10.1953 44.9773 9.44739 50.8981 9.44739C52.2069 9.44739 53.7962 9.54088 55.6659 9.72785C57.598 9.8525 59.1872 10.0083 60.4337 10.1953V24.3117C59.1872 24.0624 57.7849 23.8754 56.2268 23.7508C54.6687 23.5638 52.7678 23.4703 50.5242 23.4703C46.0368 23.4703 42.4844 24.1559 39.8668 25.527C37.2491 26.8358 35.3483 28.7679 34.1641 31.3232C33.0423 33.8161 32.3879 36.8388 32.2009 40.3913H32.7618C33.946 38.21 35.5352 36.3714 37.5296 34.8756C39.5863 33.3798 42.3909 32.632 45.9433 32.632C51.8018 32.632 56.3826 34.5328 59.6858 38.3346C62.989 42.0741 64.6406 47.4028 64.6406 54.3207C64.6406 61.7996 62.5216 67.6269 58.2835 71.8027C54.1078 75.9784 48.374 78.0662 41.0821 78.0662C36.3454 78.0662 32.0762 77.0379 28.2745 74.9812C24.4727 72.8622 21.45 69.6525 19.2063 65.3521C17.025 61.0518 15.9343 55.5672 15.9343 48.8985ZM40.7081 63.7629C42.6402 63.7629 44.1983 63.0461 45.3824 61.6127C46.5666 60.1169 47.1587 57.8109 47.1587 54.6947C47.1587 52.1394 46.6601 50.145 45.6629 48.7116C44.6657 47.2781 43.0764 46.5614 40.8951 46.5614C38.6514 46.5614 36.9064 47.3093 35.6599 48.8051C34.4757 50.3008 33.8836 51.9524 33.8836 53.7598C33.8836 55.3179 34.1018 56.876 34.538 58.4341C35.0366 59.9922 35.7845 61.2699 36.7817 62.2671C37.8412 63.2643 39.15 63.7629 40.7081 63.7629Z" fill="#F15555"/>
</mask>
<g mask="url(#mask0)">
<path d="M33.3244 33.9966C33.6107 22.2589 53.0067 17.893 62.6689 17.1772L65.5318 27.1973C64.2196 27.913 59.6629 29.2013 51.9331 28.6288C44.2033 28.0562 36.3066 31.9688 33.3244 33.9966Z" fill="#E84141"/>
<path d="M58.7324 52.0059C59.305 40.2681 53.2453 31.3693 50.1438 28.3872C53.0067 28.0293 60.3786 27.5283 66.9632 28.3872C75.194 29.4608 73.7625 39.8387 74.4783 53.4374C75.194 67.036 65.5318 83.8554 44.4181 83.1397C27.5271 82.5671 22.8272 74.3125 22.5886 70.2568C49.4281 76.3404 58.0167 66.6782 58.7324 52.0059Z" fill="#E84141"/>
</g>
<path d="M21.4878 27.5053C23.0973 29.6536 28.6397 31.554 32.4844 30.7783C31.1557 32.6754 27.7973 35.1429 25.1 34.3401C22.7629 33.6444 21.0543 28.5513 21.4878 27.5053Z" fill="#B90000"/>
<path d="M23.2304 32.6543C25.4262 31.7271 27.4186 33.1162 28.2408 34.0331C27.7499 34.4008 25.7335 34.6395 24.9717 34.3447C24.2098 34.0499 23.4033 33.0657 23.2304 32.6543Z" fill="#D63434"/>
<path fill-rule="evenodd" clip-rule="evenodd" d="M58.4994 23.991C57.7827 23.8944 57.0252 23.8142 56.2267 23.7503C54.6686 23.5633 52.7677 23.4698 50.524 23.4698C46.0367 23.4698 42.4842 24.1554 39.8666 25.5265C37.249 26.8353 35.3481 28.7674 34.164 31.3227C33.3963 33.0286 32.8475 34.9825 32.5176 37.1846C32.4554 37.5998 32.401 38.0238 32.3543 38.4566C32.2969 38.9895 32.2513 39.5358 32.2175 40.0954C32.2115 40.1934 32.206 40.2919 32.2008 40.3908H32.7617C33.2314 39.5255 33.7649 38.7142 34.3621 37.9568C35.2704 36.8048 36.3262 35.7776 37.5295 34.8751C39.5862 33.3794 42.3907 32.6315 45.9432 32.6315C51.8017 32.6315 56.3825 34.5323 59.6857 38.3341C62.9889 42.0736 64.6404 47.4023 64.6404 54.3203C64.6404 61.7991 62.5214 67.6264 58.2834 71.8022C54.1077 75.9779 48.3739 78.0657 41.0819 78.0657C36.3453 78.0657 32.0761 77.0374 28.2743 74.9807C24.4726 72.8617 21.4498 69.652 19.2062 65.3516C17.0248 61.0513 15.9342 55.5667 15.9342 48.8981C15.9342 45.0963 16.2146 41.2945 16.7755 37.4927C17.3365 33.691 18.3336 30.1073 19.7671 26.7418C21.2006 23.3763 23.2261 20.4159 25.8437 17.8607C28.4613 15.243 31.7956 13.1863 35.8467 11.6906C39.9601 10.1948 44.9772 9.44689 50.898 9.44689C52.2068 9.44689 53.7961 9.54038 55.6658 9.72735C57.5978 9.852 59.1871 10.0078 60.4336 10.1948V24.3112C59.8259 24.1897 59.1811 24.0829 58.4994 23.991ZM55.8242 7.79936C53.9298 7.61071 52.2838 7.5127 50.898 7.5127C44.8261 7.5127 39.5711 8.27814 35.1857 9.87282L35.1812 9.87444L35.1768 9.8761C30.9111 11.4511 27.3284 13.6433 24.4843 16.4847C21.688 19.2165 19.5196 22.387 17.9876 25.9839C16.4861 29.5091 15.4459 33.2533 14.8621 37.2104C14.2875 41.1047 14 45.0008 14 48.8981C14 55.7608 15.12 61.5716 17.4812 66.2266L17.4862 66.2365L17.4914 66.2463C19.8889 70.8417 23.1641 74.3467 27.3327 76.6702L27.3433 76.6761L27.354 76.6819C31.4649 78.9058 36.0554 79.9999 41.0819 79.9999C48.7562 79.9999 55.0267 77.7913 59.6459 73.175C64.3389 68.5481 66.5746 62.1736 66.5746 54.3203C66.5746 47.1164 64.855 41.2684 61.1407 37.0597C57.409 32.7683 52.2578 30.6973 45.9432 30.6973C42.1398 30.6973 38.8873 31.496 36.3918 33.3109L36.3803 33.3192L36.3689 33.3278C35.9302 33.6568 35.5088 34.0011 35.1049 34.3606C35.3397 33.5612 35.6131 32.8169 35.9233 32.1263C36.9159 29.9898 38.4927 28.376 40.7316 27.2565L40.7479 27.2484L40.7641 27.2399C42.998 26.0697 46.2011 25.404 50.524 25.404C52.7204 25.404 54.5393 25.4959 55.9963 25.6707L56.0343 25.6753L56.0725 25.6783C57.5714 25.7982 58.8967 25.9763 60.0542 26.2078L62.3678 26.6705V8.52908L60.7205 8.28199C59.4074 8.08502 57.7703 7.92553 55.8242 7.79936ZM45.3823 61.6122C46.5665 60.1164 47.1585 57.8104 47.1585 54.6942C47.1585 52.1389 46.6599 50.1445 45.6628 48.7111C44.6656 47.2776 43.0763 46.5609 40.895 46.5609C38.6513 46.5609 36.9062 47.3088 35.6597 48.8046C34.4756 50.3004 33.8835 51.9519 33.8835 53.7593C33.8835 55.3174 34.1016 56.8755 34.5379 58.4336C35.0365 59.9918 35.7844 61.2694 36.7816 62.2666C37.8411 63.2638 39.1499 63.7624 40.708 63.7624C42.64 63.7624 44.1981 63.0456 45.3823 61.6122ZM38.1279 60.8774C38.7978 61.499 39.6156 61.8282 40.708 61.8282C42.0816 61.8282 43.0797 61.3545 43.878 60.3961C44.6609 59.3962 45.2243 57.6145 45.2243 54.6942C45.2243 52.3597 44.7643 50.8065 44.075 49.8156C43.5301 49.0323 42.6206 48.4951 40.895 48.4951C39.1384 48.4951 37.9806 49.0511 37.1607 50.0248C36.2417 51.1934 35.8177 52.4206 35.8177 53.7593C35.8177 55.1231 36.0067 56.4943 36.3908 57.8774C36.806 59.1602 37.3972 60.1394 38.1279 60.8774Z" fill="#D63535"/>
<ellipse cx="46.5684" cy="9.51998" rx="6.50149" ry="7.6573" transform="rotate(-21.7267 46.5684 9.51998)" fill="white"/>
<circle cx="45.3503" cy="8.52301" r="1.44477" transform="rotate(-21.7267 45.3503 8.52301)" fill="#161E33"/>
<ellipse cx="31.8315" cy="14.7216" rx="6.50149" ry="7.6573" transform="rotate(-21.7267 31.8315 14.7216)" fill="white"/>
<circle cx="32.6361" cy="13.4356" r="1.44477" transform="rotate(-21.7267 32.6361 13.4356)" fill="#161E33"/>
</svg>
