<svg width="80" height="80" viewBox="0 0 80 80" fill="none" xmlns="http://www.w3.org/2000/svg">
<path fill-rule="evenodd" clip-rule="evenodd" d="M13.8232 79.9999L36.1539 29.5053H9.00006V11.1505H59.7115V23.8054L36.2035 79.9999H13.8232ZM39.0498 27.6196L16.7191 78.1142H34.9482L57.8258 23.4269V13.0363H10.8858V27.6196H39.0498Z" fill="#DEB41D"/>
<path d="M59.1756 16.0972C60.4141 12.924 64.0777 6.95309 68.8245 8.45519C73.5713 9.9573 64.3698 14.1757 59.1756 16.0972Z" fill="#DEB31D"/>
<path d="M59.1754 16.3651C61.7585 15.1164 67.442 13.5309 69.5109 17.1787C71.5797 20.8265 63.4826 18.1562 59.1754 16.3651Z" fill="#DEB31D"/>
<path d="M59.1375 16.9822C61.8944 17.7769 67.1845 20.3905 66.2897 24.4875C65.395 28.5846 61.1488 21.1911 59.1375 16.9822Z" fill="#DEB31D"/>
<path d="M16.7195 78.1141L39.0502 27.6195H10.8862V13.0363H57.8262V23.4268L34.9486 78.1141H16.7195Z" fill="#F1CF55"/>
<path d="M28.8671 55.7708C31.7393 59.5764 38.1708 59.5878 41.0276 59.1177C38.6795 62.4957 33.2426 68.4617 30.28 65.3023C27.3175 62.1429 28.1037 57.6315 28.8671 55.7708Z" fill="#A37E00"/>
<path d="M28.928 63.192C30.9501 60.5097 34.3877 63.0858 35.8537 64.7091C34.9841 65.3654 32.9062 66.5483 31.5512 66.0294C30.1961 65.5105 29.2378 63.9216 28.928 63.192Z" fill="#DEB31D"/>
<ellipse rx="8.65136" ry="10.1894" transform="matrix(-0.864249 0.503065 0.503065 0.864249 45.5333 14.635)" fill="white"/>
<path d="M36.4318 13.137C41.6084 9.40954 49.8101 11.0464 53.8869 12.5532C54.18 12.6616 54.4986 12.4717 54.4998 12.1592C54.5139 8.39279 50.6462 3.02836 44.3948 3.50767C38.3111 3.9741 35.5564 9.61863 35.7156 12.8484C35.7331 13.2036 36.1433 13.3448 36.4318 13.137Z" fill="#FBD963"/>
<circle r="1.92252" transform="matrix(-0.864249 0.503065 0.503065 0.864249 43.832 13.623)" fill="#161E33"/>
<ellipse cx="24.6583" cy="14.635" rx="8.65136" ry="10.1894" transform="rotate(30.203 24.6583 14.635)" fill="white"/>
<path d="M33.7594 13.137C28.5829 9.40954 20.3812 11.0464 16.3044 12.5532C16.0113 12.6616 15.6927 12.4717 15.6915 12.1592C15.6774 8.39279 19.5451 3.02836 25.7965 3.50767C31.8802 3.9741 34.6349 9.61863 34.4757 12.8484C34.4582 13.2036 34.048 13.3448 33.7594 13.137Z" fill="#FBD963"/>
<circle cx="26.3592" cy="13.623" r="1.92252" transform="rotate(30.203 26.3592 13.623)" fill="#161E33"/>
</svg>
