<svg width="80" height="80" viewBox="0 0 80 80" fill="none" xmlns="http://www.w3.org/2000/svg">
<path fill-rule="evenodd" clip-rule="evenodd" d="M19.9821 14.9059C17.997 17.3392 17.0044 20.4129 17.0044 24.1269C17.0044 28.0971 18.029 31.459 20.0781 34.2125C21.685 36.3717 23.5478 38.275 25.6666 39.9224C26.2497 40.3758 26.8523 40.8098 27.4742 41.2244C26.7988 41.5621 26.1449 41.9157 25.5126 42.2853C22.7881 43.8776 20.4643 45.7652 18.5413 47.9481C16.172 50.5735 14.9873 54.2556 14.9873 58.9942C14.9873 64.6293 16.9724 69.2078 20.9426 72.7298C24.9128 76.2517 31.2523 78.0127 39.9611 78.0127C45.7243 78.0127 50.4309 77.1802 54.0809 75.5153C57.7949 73.8504 60.5485 71.5771 62.3415 68.6956C64.1344 65.7499 65.0309 62.4521 65.0309 58.8021C65.0309 55.7924 64.3266 53.199 62.9178 51.0218C61.509 48.7806 59.748 46.8595 57.6349 45.2586C56.1794 44.1119 54.7088 43.0715 53.223 42.1374C52.5515 41.7153 51.877 41.3149 51.1993 40.9362C51.916 40.5911 52.6053 40.224 53.267 39.8349C55.7977 38.3467 57.9261 36.5366 59.652 34.4046C61.8932 31.7151 63.0138 28.3213 63.0138 24.223C63.0138 18.5879 60.9007 14.3936 56.6743 11.64C52.448 8.88653 46.9409 7.50977 40.1532 7.50977C35.6707 7.50977 31.6685 8.15012 28.1466 9.43082C24.6887 10.6475 21.9672 12.4725 19.9821 14.9059ZM27.4771 7.55964C23.7375 8.87707 20.6926 10.891 18.4422 13.6496C16.1169 16.4999 15.0171 20.0424 15.0171 24.1269C15.0171 28.455 16.1409 32.2506 18.4838 35.399C20.0369 37.4858 21.8149 39.3491 23.8147 40.9869C21.221 42.5865 18.9638 44.4639 17.0579 46.6256C14.2663 49.7244 13 53.9384 13 58.9942C13 65.1579 15.1996 70.2917 19.6238 74.2164C24.1285 78.2126 31.0578 80 39.9611 80C45.8909 80 50.9042 79.1472 54.8995 77.3262C58.8987 75.5324 61.9891 73.0235 64.0288 69.7455L64.0339 69.7372L64.039 69.7288C66.0327 66.4534 67.0182 62.7944 67.0182 58.8021C67.0182 55.4771 66.2371 52.4988 64.5935 49.9534C63.0613 47.5187 61.1442 45.4268 58.8501 43.6861C57.6294 42.725 56.3954 41.8337 55.1479 41.0129C57.4882 39.5202 59.5069 37.7398 61.1877 35.6659C63.7697 32.562 65.0011 28.6976 65.0011 24.223C65.0011 18.0088 62.6221 13.1432 57.7592 9.97496C53.1163 6.95004 47.1964 5.52246 40.1532 5.52246C35.4873 5.52246 31.2523 6.18835 27.4771 7.55964ZM42.4009 28.6804L42.4201 28.6641C43.2239 27.9808 43.6409 27.1102 43.6409 25.8559C43.6409 24.895 43.319 24.2722 42.6792 23.7746L42.6573 23.7576L42.6359 23.7399C41.9199 23.1502 41.0912 22.8484 40.0571 22.8484C38.9482 22.8484 38.0453 23.1582 37.2658 23.757C36.6934 24.2368 36.3773 24.864 36.3773 25.8559C36.3773 26.8063 36.6882 27.6925 37.412 28.5681C38.1136 29.3043 38.9326 29.9919 39.8768 30.6274C40.7378 30.0639 41.5729 29.4212 42.382 28.6973L42.4009 28.6804ZM39.865 32.9638C38.3282 32.0673 37.0155 31.0428 35.9269 29.8901C34.9023 28.6734 34.39 27.3287 34.39 25.8559C34.39 24.319 34.9343 23.1024 36.0229 22.2059C37.1756 21.3094 38.5203 20.8611 40.0571 20.8611C41.53 20.8611 42.8107 21.3094 43.8993 22.2059C45.0519 23.1024 45.6282 24.319 45.6282 25.8559C45.6282 27.6489 44.9879 29.0897 43.7072 30.1783C42.4905 31.2669 41.2098 32.1954 39.865 32.9638ZM41.0177 49.8692L39.769 49.1007C37.6558 50.1893 35.8308 51.47 34.294 52.9429C32.7571 54.4157 31.9887 56.1766 31.9887 58.2258C31.9887 60.1468 32.6611 61.7157 34.0058 62.9324C35.4146 64.085 37.3356 64.6613 39.769 64.6613C42.5865 64.6613 44.6677 64.117 46.0124 63.0284C47.3572 61.9398 48.0296 60.467 48.0296 58.61C48.0296 57.2012 47.6133 55.9205 46.7809 54.7679C45.9484 53.6152 44.9879 52.6227 43.8993 51.7902C42.8107 50.9578 41.8501 50.3174 41.0177 49.8692ZM35.3023 61.4251C36.2521 62.1847 37.6677 62.674 39.769 62.674C42.3967 62.674 43.9334 62.1546 44.762 61.4838C45.6028 60.8031 46.0422 59.9177 46.0422 58.61C46.0422 57.6231 45.7601 56.7488 45.1698 55.9314C44.4467 54.9302 43.6208 54.079 42.6921 53.3688C41.6535 52.5746 40.7842 52.0005 40.0755 51.6189L40.025 51.5917L39.7064 51.3957C38.1603 52.2807 36.818 53.2765 35.669 54.3777C34.5062 55.492 33.976 56.7415 33.976 58.2258C33.976 59.6037 34.4253 60.6153 35.3023 61.4251Z" fill="#68A800"/>
<path d="M21 4.91924C21 5.32716 28.8321 6.95886 29.1585 6.95886C31.47 6.68691 36.909 6.14301 40.1724 6.14301C43.4358 6.14301 49.6906 8.04665 52.4101 8.99848C52.4101 8.99848 58.9369 7.77495 58.9369 7.36678C58.9369 6.95861 49.5547 5.73508 49.5547 5.73508C49.5547 5.73508 52.8181 4.10314 52.8181 3.69546C52.8181 3.28779 45.4754 4.10339 45.4754 4.10339C45.4754 4.10339 51.5943 0.432073 51.5943 0.0241491C51.5943 -0.383775 37.7249 4.51131 37.7249 4.51131C37.7249 4.51131 35.2773 2.87962 34.8694 2.87962C34.4615 2.87962 35.2773 4.10339 35.2773 4.10339L35.2773 4.10338C33.3737 3.28753 29.5664 1.65584 29.1585 1.65584C28.7506 1.65584 30.9261 3.83144 32.0139 4.91924C32.0139 4.91924 21 4.51131 21 4.91924Z" fill="#68A800"/>
<path d="M40.1659 7.50916C46.9536 7.50916 52.4607 8.88592 56.687 11.6394C60.9134 14.393 63.0265 18.5873 63.0265 24.2224C63.0265 28.3206 61.9059 31.7145 59.6647 34.404C57.4875 37.0935 54.6699 39.2707 51.212 40.9356C53.3892 42.1523 55.5344 43.5931 57.6476 45.258C59.7607 46.8589 61.5217 48.7799 62.9305 51.0212C64.3392 53.1984 65.0436 55.7918 65.0436 58.8015C65.0436 62.4515 64.1471 65.7493 62.3541 68.6949C60.5612 71.5765 57.8076 73.8498 54.0936 75.5147C50.4436 77.1796 45.737 78.0121 39.9738 78.0121C31.265 78.0121 24.9255 76.2511 20.9553 72.7292C16.9851 69.2072 15 64.6287 15 58.9936C15 54.255 16.1847 50.5729 18.554 47.9475C20.9233 45.258 23.9009 43.0168 27.4869 41.2238C24.6053 39.3027 22.1399 36.9654 20.0908 34.2119C18.0417 31.4584 17.0171 28.0965 17.0171 24.1263C17.0171 20.4123 18.0097 17.3386 19.9948 14.9052C21.9799 12.4719 24.7014 10.6469 28.1593 9.43021C31.6812 8.14951 35.6834 7.50916 40.1659 7.50916ZM40.0698 20.8605C38.533 20.8605 37.1883 21.3088 36.0356 22.2053C34.947 23.1018 34.4027 24.3184 34.4027 25.8553C34.4027 27.3281 34.915 28.6728 35.9396 29.8895C37.0282 31.0421 38.3409 32.0667 39.8777 32.9632C41.2225 32.1948 42.5032 31.2663 43.7199 30.1777C45.0006 29.0891 45.6409 27.6483 45.6409 25.8553C45.6409 24.3184 45.0646 23.1018 43.912 22.2053C42.8234 21.3088 41.5427 20.8605 40.0698 20.8605ZM32.0014 58.2252C32.0014 60.1462 32.6738 61.7151 34.0185 62.9318C35.4273 64.0844 37.3483 64.6607 39.7817 64.6607C42.5992 64.6607 44.6804 64.1164 46.0251 63.0278C47.3699 61.9392 48.0422 60.4664 48.0422 58.6094C48.0422 57.2006 47.626 55.9199 46.7936 54.7673C45.9611 53.6146 45.0006 52.6221 43.912 51.7896C42.8234 50.9571 41.8628 50.3168 41.0304 49.8685L39.7817 49.1001C37.6685 50.1887 35.8435 51.4694 34.3067 52.9422C32.7698 54.4151 32.0014 56.176 32.0014 58.2252Z" fill="#81BD1E"/>
<mask id="mask0" mask-type="alpha" maskUnits="userSpaceOnUse" x="15" y="7" width="51" height="72">
<path d="M40.1659 7.5094C46.9536 7.5094 52.4607 8.88616 56.687 11.6397C60.9134 14.3932 63.0265 18.5875 63.0265 24.2226C63.0265 28.3209 61.9059 31.7148 59.6647 34.4042C57.4875 37.0937 54.6699 39.2709 51.212 40.9359C53.3892 42.1525 55.5344 43.5933 57.6476 45.2582C59.7607 46.8591 61.5217 48.7802 62.9305 51.0214C64.3392 53.1986 65.0436 55.7921 65.0436 58.8017C65.0436 62.4517 64.1471 65.7496 62.3541 68.6952C60.5612 71.5768 57.8076 73.85 54.0936 75.5149C50.4436 77.1799 45.737 78.0123 39.9738 78.0123C31.265 78.0123 24.9255 76.2514 20.9553 72.7294C16.9851 69.2075 15 64.6289 15 58.9938C15 54.2552 16.1847 50.5732 18.554 47.9477C20.9233 45.2582 23.9009 43.017 27.4869 41.224C24.6053 39.303 22.1399 36.9657 20.0908 34.2121C18.0417 31.4586 17.0171 28.0968 17.0171 24.1266C17.0171 20.4125 18.0097 17.3388 19.9948 14.9055C21.9799 12.4721 24.7014 10.6471 28.1593 9.43046C31.6812 8.14975 35.6834 7.5094 40.1659 7.5094ZM40.0698 20.8608C38.533 20.8608 37.1883 21.309 36.0356 22.2055C34.947 23.102 34.4027 24.3187 34.4027 25.8555C34.4027 27.3283 34.915 28.6731 35.9396 29.8898C37.0282 31.0424 38.3409 32.067 39.8777 32.9635C41.2225 32.195 42.5032 31.2665 43.7199 30.1779C45.0006 29.0893 45.6409 27.6485 45.6409 25.8555C45.6409 24.3187 45.0646 23.102 43.912 22.2055C42.8234 21.309 41.5427 20.8608 40.0698 20.8608ZM32.0014 58.2254C32.0014 60.1465 32.6738 61.7153 34.0185 62.932C35.4273 64.0846 37.3483 64.661 39.7817 64.661C42.5992 64.661 44.6804 64.1167 46.0251 63.0281C47.3699 61.9395 48.0422 60.4666 48.0422 58.6096C48.0422 57.2008 47.626 55.9201 46.7936 54.7675C45.9611 53.6149 45.0006 52.6223 43.912 51.7898C42.8234 50.9574 41.8628 50.317 41.0304 49.8688L39.7817 49.1004C37.6685 50.189 35.8435 51.4697 34.3067 52.9425C32.7698 54.4153 32.0014 56.1763 32.0014 58.2254Z" fill="#81BD1E"/>
</mask>
<g mask="url(#mask0)">
<path d="M56.4397 18.3806C53.6238 12.2794 43.6581 8.04655 39.3069 6.55083L57.2556 5.73499C61.1989 9.13435 69.167 16.0147 69.4933 16.341C69.8197 16.6673 66.6378 31.4342 65.0061 38.7768L52.7684 40.8164C55.352 35.7854 61.3348 28.9866 56.4397 18.3806Z" fill="#72AF0D"/>
</g>
<path d="M27.2839 60.1198C34.8314 72.1723 46.7537 66.8126 51.7714 62.6262C44.5261 74.1126 33.2204 73.0641 29.8198 69.1716C26.4192 65.2791 27.4306 62.0983 27.2839 60.1198Z" fill="#487205"/>
<path d="M34 72.2146C35.6469 72.2695 36.635 65.6266 45.3636 71.5559C43.6618 71.6657 37.162 74.9814 34 72.2146Z" fill="#68A800"/>
<ellipse cx="39.9288" cy="37.8019" rx="5.92883" ry="6.25821" fill="white"/>
<circle cx="38.282" cy="37.1432" r="1.6469" fill="#161E33"/>
<ellipse cx="39.9288" cy="37.8019" rx="5.92883" ry="6.25821" fill="white"/>
<circle cx="41.5755" cy="37.1432" r="1.6469" fill="#161E33"/>
</svg>
