<svg width="80" height="80" viewBox="0 0 80 80" fill="none" xmlns="http://www.w3.org/2000/svg">
<path d="M65.8923 35.4468C65.8923 44.1823 64.5854 51.7485 61.9717 58.1454C59.3579 64.4735 55.2309 69.3571 49.5906 72.7963C43.9504 76.1667 36.5562 77.8519 27.4079 77.8519C25.8947 77.8519 24.1407 77.8175 22.146 77.7487C20.1513 77.6799 18.4661 77.5424 17.0904 77.336V61.5502C18.5349 61.8253 19.9793 62.0317 21.4238 62.1692C22.8682 62.3068 24.5534 62.3756 26.4794 62.3756C32.0508 62.3756 36.3498 61.5846 39.3763 60.0026C42.4028 58.4205 44.535 56.2195 45.7732 53.3993C47.0113 50.5792 47.7335 47.3464 47.9398 43.7009H47.3208C46.0139 46.1771 44.2599 48.2406 42.0588 49.8914C39.8578 51.4734 36.6593 52.2644 32.4635 52.2644C26.273 52.2644 21.3206 50.2009 17.6063 46.0739C13.9608 41.8781 12.138 35.9283 12.138 28.2246C12.138 20.0393 14.4422 13.6425 19.0507 9.03397C23.728 4.42547 30.1249 2.12122 38.2414 2.12122C43.4001 2.12122 48.043 3.29054 52.17 5.62918C56.3658 7.96782 59.7018 11.579 62.178 16.4626C64.6542 21.3462 65.8923 27.6743 65.8923 35.4468ZM38.7572 18.0102C36.4186 18.0102 34.5958 18.8012 33.2889 20.3832C32.0508 21.9653 31.4318 24.5103 31.4318 28.0182C31.4318 30.7696 32.0164 32.9706 33.1858 34.6214C34.4239 36.2035 36.2122 36.9945 38.5509 36.9945C40.752 36.9945 42.5403 36.1347 43.916 34.4151C45.3605 32.6955 46.0827 30.8727 46.0827 28.9468C46.0827 27.1584 45.8075 25.4388 45.2573 23.788C44.7758 22.1372 43.9848 20.7616 42.8842 19.661C41.8525 18.5605 40.4768 18.0102 38.7572 18.0102Z" fill="#37C6A3"/>
<mask id="mask0" mask-type="alpha" maskUnits="userSpaceOnUse" x="11" y="2" width="55" height="76">
<path d="M65.5814 35.4468C65.5814 44.1823 64.2745 51.7485 61.6608 58.1454C59.047 64.4735 54.92 69.3571 49.2797 72.7963C43.6395 76.1667 36.2452 77.8519 27.097 77.8519C25.5838 77.8519 23.8298 77.8175 21.8351 77.7487C19.8404 77.6799 18.1552 77.5424 16.7795 77.336V61.5502C18.224 61.8253 19.6684 62.0317 21.1129 62.1692C22.5573 62.3068 24.2425 62.3756 26.1685 62.3756C31.7399 62.3756 36.0389 61.5846 39.0654 60.0026C42.0918 58.4205 44.2241 56.2195 45.4622 53.3993C46.7003 50.5792 47.4226 47.3464 47.6289 43.7009H47.0099C45.703 46.1771 43.949 48.2406 41.7479 49.8914C39.5469 51.4734 36.3484 52.2644 32.1526 52.2644C25.9621 52.2644 21.0097 50.2009 17.2954 46.0739C13.6499 41.8781 11.8271 35.9283 11.8271 28.2246C11.8271 20.0393 14.1313 13.6425 18.7398 9.03397C23.4171 4.42547 29.814 2.12122 37.9304 2.12122C43.0892 2.12122 47.7321 3.29054 51.8591 5.62918C56.0549 7.96782 59.3909 11.579 61.8671 16.4626C64.3433 21.3462 65.5814 27.6743 65.5814 35.4468ZM38.4463 18.0102C36.1077 18.0102 34.2849 18.8012 32.978 20.3832C31.7399 21.9653 31.1209 24.5103 31.1209 28.0182C31.1209 30.7696 31.7055 32.9706 32.8748 34.6214C34.113 36.2035 35.9013 36.9945 38.24 36.9945C40.441 36.9945 42.2294 36.1347 43.6051 34.4151C45.0495 32.6955 45.7718 30.8727 45.7718 28.9468C45.7718 27.1584 45.4966 25.4388 44.9464 23.788C44.4649 22.1372 43.6739 20.7616 42.5733 19.661C41.5416 18.5605 40.1659 18.0102 38.4463 18.0102Z" fill="#37C6A3"/>
</mask>
<g mask="url(#mask0)">
<path d="M51.0247 64.5476C62.752 53.585 65.259 31.9361 65.0465 22.4819C67.2773 30.024 71.7388 45.2994 71.7388 46.0642C71.7388 47.0202 68.8707 64.5476 63.1345 71.5585C57.3982 78.5695 48.1565 81.1189 38.5962 81.1189C30.9479 81.1189 23.512 79.4193 20.7501 78.5695C25.9552 78.4633 39.2973 75.5102 51.0247 64.5476Z" fill="#17B68F"/>
</g>
<path d="M26.6652 34.2688C30.2031 39.7364 38.9638 40.3857 42.902 40.0269C39.3702 44.3973 31.3755 51.9892 27.6509 47.3931C23.9263 42.797 25.4419 36.7286 26.6652 34.2688Z" fill="#017E60"/>
<path d="M26.0166 44.3834C29.0357 40.9286 33.4649 44.7768 35.3021 47.1328C34.0528 47.9411 31.1055 49.3478 29.3106 48.5074C27.5157 47.667 26.3667 45.4079 26.0166 44.3834Z" fill="#01A87F"/>
<path fill-rule="evenodd" clip-rule="evenodd" d="M63.9429 58.97L63.9413 58.9738C61.1613 65.7044 56.7406 70.9482 50.6986 74.6323L50.6905 74.6373L50.6823 74.6422C44.6058 78.2732 36.794 80 27.4046 80C25.8606 80 24.0811 79.9649 22.0691 79.8956C20.0247 79.8251 18.2529 79.6829 16.7704 79.4605L14.9524 79.1878V58.984L17.4865 59.4667C18.8666 59.7296 20.2453 59.9265 21.6228 60.0576C22.9824 60.1871 24.5973 60.2544 26.476 60.2544C31.8962 60.2544 35.7973 59.4764 38.3841 58.1242C41.0302 56.741 42.7936 54.8818 43.8152 52.5547C44.0858 51.9384 44.3305 51.2971 44.5488 50.6303C44.1591 50.9711 43.7549 51.2986 43.3363 51.6126L43.319 51.6256L43.3014 51.6382C40.5875 53.5888 36.8742 54.4125 32.4602 54.4125C25.742 54.4125 20.1845 52.1467 16.0163 47.5154L16.0038 47.5015L15.9916 47.4874C11.898 42.776 10 36.2581 10 28.238C10 19.6394 12.4327 12.6432 17.538 7.53798L17.5436 7.53239L17.5492 7.52684C22.7156 2.43642 29.7009 0 38.238 0C43.7298 0 48.7386 1.248 53.2126 3.78174C57.8268 6.35543 61.4392 10.3051 64.0786 15.5107C66.7565 20.7922 68.0237 27.484 68.0237 35.4603C68.0237 44.4024 66.6866 52.2552 63.9444 58.9663L63.9429 58.97ZM52.1667 5.64262C48.0397 3.30398 43.3968 2.13466 38.238 2.13466C30.1216 2.13466 23.7247 4.43891 19.0474 9.04741C14.4389 13.6559 12.1347 20.0528 12.1347 28.238C12.1347 35.9418 13.9574 41.8915 17.603 46.0873C21.3173 50.2144 26.2697 52.2779 32.4602 52.2779C36.656 52.2779 39.8544 51.4869 42.0555 49.9048C43.3641 48.9234 44.5146 47.7961 45.5071 46.5229C46.1841 45.6546 46.7875 44.7184 47.3174 43.7143H47.9365C47.9305 43.8202 47.9241 43.9257 47.9172 44.0309C47.8769 44.6489 47.8215 45.255 47.7511 45.849C47.6893 46.3707 47.6159 46.8831 47.531 47.3862C47.1621 49.5697 46.5751 51.5785 45.7698 53.4128C44.5317 56.2329 42.3994 58.434 39.3729 60.016C36.3465 61.598 32.0475 62.389 26.476 62.389C24.5501 62.389 22.8649 62.3203 21.4204 62.1827C20.6875 62.1129 19.9546 62.0254 19.2217 61.9202C18.5102 61.818 17.7986 61.6992 17.0871 61.5636V77.3495C18.4627 77.5558 20.1479 77.6934 22.1427 77.7622C24.1374 77.831 25.8914 77.8653 27.4046 77.8653C36.5528 77.8653 43.947 76.1801 49.5873 72.8098C55.2275 69.3706 59.3546 64.4869 61.9683 58.1589C64.5821 51.762 65.889 44.1958 65.889 35.4603C65.889 27.6877 64.6509 21.3597 62.1747 16.476C59.6985 11.5924 56.3625 7.98127 52.1667 5.64262ZM42.2617 33.0751L42.2781 33.0555C43.456 31.6533 43.9447 30.3026 43.9447 28.9602C43.9447 27.3949 43.7045 25.9036 43.2288 24.4765L43.216 24.4381L43.2047 24.3992C42.8129 23.0559 42.1924 22.0049 41.3715 21.1839L41.3471 21.1596L41.3236 21.1344C40.7535 20.5263 39.9741 20.1583 38.7539 20.1583C36.9653 20.1583 35.7905 20.7287 34.9499 21.7339C34.1635 22.7552 33.5631 24.7053 33.5631 28.0317C33.5631 30.4675 34.0755 32.1789 34.8946 33.3586C35.6579 34.3112 36.7684 34.8733 38.5475 34.8733C40.0998 34.8733 41.275 34.3085 42.2458 33.095L42.2617 33.0751ZM33.2856 20.3967C34.5925 18.8147 36.4152 18.0237 38.7539 18.0237C40.4735 18.0237 41.8491 18.5739 42.8809 19.6745C43.9814 20.775 44.7724 22.1507 45.2539 23.8015C45.8042 25.4523 46.0793 27.1719 46.0793 28.9602C46.0793 30.8862 45.3571 32.7089 43.9127 34.4285C42.537 36.1481 40.7486 37.0079 38.5475 37.0079C36.2089 37.0079 34.4205 36.2169 33.1824 34.6349C32.0131 32.9841 31.4284 30.783 31.4284 28.0317C31.4284 24.5237 32.0475 21.9787 33.2856 20.3967Z" fill="#01A87F"/>
<ellipse cx="43.7113" cy="12.8666" rx="4.63174" ry="4.88905" fill="white"/>
<circle cx="42.4248" cy="11.3228" r="1.28659" fill="#161E33"/>
<ellipse cx="31.4886" cy="11.315" rx="6.81894" ry="7.19777" fill="white"/>
<circle cx="33.5113" cy="10.9001" r="1.89415" fill="#161E33"/>
</svg>
