<svg width="24" height="24" viewBox="0 0 24 24" fill="none" xmlns="http://www.w3.org/2000/svg">
<path d="M12 14C13.1046 14 14 13.1046 14 12C14 10.8954 13.1046 10 12 10C10.8954 10 10 10.8954 10 12C10 13.1046 10.8954 14 12 14Z" stroke="#222222" stroke-width="2" stroke-linecap="round" stroke-linejoin="round"/>
<path d="M2 12L3.5 14C4.53188 15.2562 5.82937 16.2681 7.29911 16.9628C8.76886 17.6575 10.3743 18.0179 12 18.0179C13.6257 18.0179 15.2311 17.6575 16.7009 16.9628C18.1706 16.2681 19.4681 15.2562 20.5 14L22 12" stroke="#222222" stroke-width="2" stroke-linecap="round" stroke-linejoin="round"/>
<path d="M2 12L3.5 10C4.53188 8.74379 5.82937 7.73192 7.29911 7.03719C8.76886 6.34245 10.3743 5.98212 12 5.98212C13.6257 5.98212 15.2311 6.34245 16.7009 7.03719C18.1706 7.73192 19.4681 8.74379 20.5 10L22 12" stroke="#222222" stroke-width="2" stroke-linecap="round" stroke-linejoin="round"/>
</svg>
