<svg width="76" height="63" viewBox="0 0 76 63" fill="none" xmlns="http://www.w3.org/2000/svg">
<path d="M11.8418 6.62276C-10.4465 17.0322 5.65376 26.1624 5.20276 37.3778C4.82353 46.8084 -5.04033 46.7463 5.20277 55.8309C18.0067 67.1866 41.2433 62.4551 56.8925 59.143C72.5417 55.8309 78.7065 47.7873 74.9128 35.4852C71.119 23.1832 77.2839 13.7201 60.6862 6.62276C44.0886 -0.474567 34.13 -3.78665 11.8418 6.62276Z" fill="#F7F7FF"/>
<mask id="mask0" mask-type="alpha" maskUnits="userSpaceOnUse" x="14" y="12" width="28" height="24">
<path d="M18.2701 15.1866C18.6791 13.6601 20.2482 12.7542 21.7747 13.1632L35.8249 16.928L34.4196 22.1725C35.1181 21.9282 35.8949 21.8841 36.6636 22.09C38.6989 22.6354 39.9068 24.7275 39.3614 26.7628C38.816 28.7982 36.724 30.006 34.6886 29.4607C33.9199 29.2547 33.2693 28.8281 32.7865 28.2673L31.3196 33.7422L14.5054 29.2368L18.2701 15.1866Z" fill="white"/>
</mask>
<g mask="url(#mask0)">
<path d="M18.2701 15.1866C18.6791 13.6601 20.2482 12.7542 21.7747 13.1632L35.8249 16.928L34.4196 22.1725C35.1181 21.9282 35.8949 21.8841 36.6636 22.09C38.6989 22.6354 39.9068 24.7275 39.3614 26.7628C38.816 28.7982 36.724 30.006 34.6886 29.4607C33.9199 29.2547 33.2693 28.8281 32.7865 28.2673L31.3196 33.7422L14.5054 29.2368L18.2701 15.1866Z" fill="#FF9F40"/>
<path fill-rule="evenodd" clip-rule="evenodd" d="M38.2205 10.6801L8.05567 36.6719L49.4279 44.1833L53.7202 22.7221L38.2205 10.6801Z" fill="#FE8A17"/>
</g>
<mask id="mask1" mask-type="alpha" maskUnits="userSpaceOnUse" x="19" y="31" width="29" height="24">
<path d="M24.0641 31.7981L36.9355 35.2468C36.133 35.7396 35.5103 36.5287 35.2473 37.5102C34.7019 39.5455 35.9098 41.6376 37.9451 42.183C39.9805 42.7283 42.0726 41.5205 42.6179 39.4851C42.8809 38.5036 42.7362 37.5089 42.2876 36.6809L47.9034 38.1858L44.1387 52.2361C43.7297 53.7626 42.1606 54.6685 40.6341 54.2594L19.5588 48.6123L24.0641 31.7981Z" fill="white"/>
</mask>
<g mask="url(#mask1)">
<path d="M24.0641 31.7981L36.9355 35.2468C36.133 35.7396 35.5103 36.5287 35.2473 37.5102C34.7019 39.5455 35.9098 41.6376 37.9451 42.183C39.9805 42.7283 42.0726 41.5205 42.6179 39.4851C42.8809 38.5036 42.7362 37.5089 42.2876 36.6809L47.9034 38.1858L44.1387 52.2361C43.7297 53.7626 42.1606 54.6685 40.6341 54.2594L19.5588 48.6123L24.0641 31.7981Z" fill="#04BCCF"/>
<path fill-rule="evenodd" clip-rule="evenodd" d="M50.3818 35.8373L24.5092 55.0331L52.2894 58.2522L50.3818 35.8373Z" fill="#00A9BA"/>
</g>
<mask id="mask2" mask-type="alpha" maskUnits="userSpaceOnUse" x="10" y="23" width="23" height="28">
<path d="M14.5054 29.2368L19.9802 30.7039C19.7359 30.0054 19.6918 29.2286 19.8978 28.4599C20.4431 26.4246 22.5352 25.2167 24.5706 25.7621C26.6059 26.3074 27.8138 28.3995 27.2684 30.4348C27.0624 31.2035 26.6358 31.8542 26.075 32.337L31.3196 33.7422L29.7511 39.5968C29.2808 38.6506 28.4221 37.9032 27.3212 37.6082C25.2859 37.0628 23.1938 38.2707 22.6485 40.306C22.1031 42.3414 23.311 44.4334 25.3463 44.9788C26.4471 45.2738 27.5645 45.0559 28.4449 44.4716L26.8142 50.5564L12.764 46.7916C11.2375 46.3826 10.3316 44.8135 10.7406 43.287L14.5054 29.2368Z" fill="white"/>
</mask>
<g mask="url(#mask2)">
<path d="M14.5054 29.2368L19.9802 30.7039C19.7359 30.0054 19.6918 29.2286 19.8978 28.4599C20.4431 26.4246 22.5352 25.2167 24.5706 25.7621C26.6059 26.3074 27.8138 28.3995 27.2684 30.4348C27.0624 31.2035 26.6358 31.8542 26.075 32.337L31.3196 33.7422L29.7511 39.5968C29.2808 38.6506 28.4221 37.9032 27.3212 37.6082C25.2859 37.0628 23.1938 38.2707 22.6485 40.306C22.1031 42.3414 23.311 44.4334 25.3463 44.9788C26.4471 45.2738 27.5645 45.0559 28.4449 44.4716L26.8142 50.5564L12.764 46.7916C11.2375 46.3826 10.3316 44.8135 10.7406 43.287L14.5054 29.2368Z" fill="#FFDC5A"/>
<path fill-rule="evenodd" clip-rule="evenodd" d="M31.5437 28.5644L9.96335 49.9062L33.6898 55.2715L41.082 30.7105L31.5437 28.5644Z" fill="#FFC843"/>
</g>
<path d="M54.6316 31.6179L50.6237 27.61C50.4861 28.3371 50.1359 29.0318 49.5731 29.5946C48.0832 31.0845 45.6674 31.0845 44.1775 29.5946C42.6875 28.1046 42.6875 25.6889 44.1775 24.1989C44.7402 23.6362 45.435 23.286 46.162 23.1483L42.3227 19.3091L46.6084 15.0231C46.5425 16.0776 46.9125 17.1543 47.7184 17.9602C49.2084 19.4501 51.6241 19.4501 53.114 17.9602C54.604 16.4702 54.604 14.0545 53.114 12.5645C52.3082 11.7586 51.2315 11.3886 50.177 11.4545L54.6316 7.00023L64.9171 17.2857C66.0345 18.4032 66.0345 20.215 64.9171 21.3325L54.6316 31.6179Z" fill="#5588FB"/>
<mask id="mask3" mask-type="alpha" maskUnits="userSpaceOnUse" x="38" y="7" width="29" height="29">
<path d="M54.6315 31.6179L50.6237 27.61C50.486 28.3371 50.1358 29.0318 49.5731 29.5946C48.0831 31.0845 45.6674 31.0845 44.1774 29.5946C42.6875 28.1046 42.6875 25.6889 44.1774 24.1989C44.7402 23.6362 45.4349 23.286 46.162 23.1483L42.3227 19.3091L46.6083 15.0231C46.5425 16.0776 46.9125 17.1543 47.7184 17.9602C49.2083 19.4501 51.624 19.4501 53.114 17.9602C54.604 16.4702 54.604 14.0545 53.114 12.5645C52.3082 11.7586 51.2315 11.3886 50.177 11.4545L54.6315 7.00023L64.917 17.2857C66.0345 18.4032 66.0345 20.215 64.917 21.3325L54.6315 31.6179Z" fill="#5588FB"/>
</mask>
<g mask="url(#mask3)">
<path fill-rule="evenodd" clip-rule="evenodd" d="M64.4506 12.707L41.7972 32.2605L66.9544 32.2605L70.8889 12.707L64.4506 12.707Z" fill="#267DE4"/>
</g>
</svg>
