<svg width="80" height="80" viewBox="0 0 80 80" fill="none" xmlns="http://www.w3.org/2000/svg">
<path fill-rule="evenodd" clip-rule="evenodd" d="M66.4594 32.9097L66.4531 32.9199C64.8922 35.4741 62.8335 37.6003 60.2981 39.2905L60.2927 39.2942L60.2872 39.2978C59.5824 39.761 58.8552 40.1911 58.1061 40.5883C61.0961 41.5346 63.6441 42.9206 65.6977 44.7906C69.2162 47.8692 70.8681 52.2044 70.8681 57.4919C70.8681 61.5846 69.7335 65.3776 67.484 68.8269C65.2452 72.3595 61.8008 75.0771 57.3153 77.0488C52.8166 79.0547 47.1116 79.9999 40.3041 79.9999C35.8055 79.9999 31.8926 79.6747 28.5905 79.0008L28.5716 78.9969L28.5527 78.9927C25.3232 78.2677 22.1897 77.3113 19.1532 76.1232L17.8921 75.6297V55.6893L20.7787 57.1633C23.6472 58.6281 26.566 59.7222 29.5365 60.4512C32.5536 61.1274 35.2439 61.4538 37.6188 61.4538C39.8073 61.4538 41.5637 61.2987 42.9204 61.016C44.2971 60.7292 45.1258 60.3388 45.5861 59.9705L45.6009 59.9587L45.6159 59.9472C46.7695 59.0598 47.335 57.9251 47.335 56.3411C47.335 55.1866 47.0308 54.3134 46.4963 53.6143L46.4572 53.5632L46.4215 53.5096C46.0368 52.9326 45.137 52.2527 43.2346 51.7338L43.227 51.7318L43.2195 51.7297C41.4392 51.229 38.652 50.9406 34.7416 50.9406H28.5375V33.0659H34.8375C40.0458 33.0659 43.1636 32.3736 44.6821 31.3772L44.6937 31.3695L44.7054 31.3621C46.3664 30.3051 46.9514 29.1543 46.9514 27.8572C46.9514 26.5916 46.5272 25.9576 45.8162 25.5375L45.788 25.5208L45.7604 25.5032C44.7716 24.874 43.3259 24.4708 41.2632 24.4708C39.4093 24.4708 37.6613 24.7306 36.0103 25.2419C34.3078 25.7896 32.8535 26.3868 31.6343 27.0255L31.6008 27.043L31.5667 27.0593C30.25 27.6863 29.3118 28.1892 28.7099 28.5722L27.0163 29.6499L17.2845 13.9574L18.8544 12.887C21.8192 10.8655 25.1967 9.16447 28.9727 7.77332L28.9779 7.7714L28.9831 7.7695C32.9886 6.31923 38.0689 5.63696 44.1403 5.63696C51.4081 5.63696 57.3859 7.08636 61.862 10.21C66.4829 13.3893 68.8541 17.8647 68.8541 23.4456C68.8541 26.9969 68.0857 30.1744 66.4655 32.8993L66.4594 32.9097ZM35.413 23.3497C37.2671 22.7742 39.2172 22.4865 41.2632 22.4865C43.5649 22.4865 45.4191 22.9341 46.8257 23.8292C48.2323 24.6604 48.9356 26.003 48.9356 27.8572C48.9356 29.9671 47.8806 31.6934 45.7707 33.0361C43.7247 34.3788 40.0803 35.0501 34.8375 35.0501H30.5218V48.9564H34.7416C38.7057 48.9564 41.7107 49.2441 43.7567 49.8195C45.8666 50.395 47.3052 51.2581 48.0725 52.409C48.9036 53.4959 49.3192 54.8066 49.3192 56.3411C49.3192 58.5149 48.488 60.2412 46.8257 61.52C45.2273 62.7987 42.1583 63.4381 37.6188 63.4381C35.0613 63.4381 32.2161 63.0864 29.0832 62.3831C26.6367 61.784 24.2291 60.9509 21.8606 59.8838C21.1961 59.5845 20.5347 59.2667 19.8763 58.9305V74.2754C22.8174 75.4262 25.8544 76.3533 28.9873 77.0566C32.1202 77.696 35.8925 78.0157 40.3041 78.0157C46.9536 78.0157 52.3562 77.0886 56.5121 75.2344C60.7319 73.3802 63.8329 70.8867 65.8149 67.7538C67.8609 64.6209 68.8839 61.2003 68.8839 57.4919C68.8839 52.6327 67.3814 48.8924 64.3763 46.271C62.1091 44.201 59.082 42.7388 55.295 41.8846C54.1942 41.6362 53.0291 41.4393 51.7999 41.2937C51.7722 41.2904 51.7446 41.2872 51.7169 41.284V40.9962C51.7284 40.993 51.7399 40.9898 51.7514 40.9866C52.9176 40.6596 54.0377 40.2693 55.1117 39.8156C56.5571 39.205 57.919 38.4797 59.1975 37.6396C61.4992 36.1051 63.3534 34.187 64.76 31.8852C66.1666 29.5196 66.8699 26.7064 66.8699 23.4456C66.8699 18.5224 64.8239 14.6543 60.7319 11.841C56.7039 9.02782 51.1734 7.62121 44.1403 7.62121C38.1942 7.62121 33.367 8.29255 29.6586 9.63522C26.0142 10.9779 22.7854 12.6083 19.9722 14.5264L27.6446 26.8982C27.6447 26.8981 27.6446 26.8982 27.6446 26.8982C27.7229 26.8484 27.8053 26.7973 27.8914 26.7451C28.5797 26.3284 29.5204 25.836 30.7136 25.2678C32.0563 24.5645 33.6227 23.9251 35.413 23.3497Z" fill="#E734A9"/>
<path d="M21.1046 49.5591C17.3274 50.838 17.162 55.4878 17.5514 57.6528L18.953 58.4265C21.2441 54.9378 24.8819 48.2801 21.1046 49.5591Z" fill="#E634A9"/>
<path d="M11.0001 53.2452C14.6443 51.6255 17.9173 54.9323 19.0983 56.7881L18.5921 58.307C14.543 57.2946 7.3559 54.8648 11.0001 53.2452Z" fill="#E634A9"/>
<path d="M10.9243 62.1548C11.6576 58.2349 16.2375 57.4152 18.4358 57.4953L19.3995 58.7737C16.2689 61.534 10.191 66.0747 10.9243 62.1548Z" fill="#E634A9"/>
<path d="M66.87 23.4456C66.87 26.7064 66.1667 29.5196 64.7601 31.8852C63.3535 34.187 61.4993 36.1051 59.1976 37.6396C56.9598 39.1101 54.4662 40.229 51.717 40.9962V41.284C57.2155 41.9233 61.4354 43.5857 64.3764 46.271C67.3815 48.8924 68.884 52.6327 68.884 57.4919C68.884 61.2003 67.861 64.6209 65.815 67.7538C63.833 70.8867 60.732 73.3802 56.5122 75.2344C52.3563 77.0886 46.9537 78.0157 40.3042 78.0157C35.8926 78.0157 32.1203 77.696 28.9874 77.0566C25.8545 76.3533 22.8175 75.4262 19.8764 74.2754V58.9305C22.8814 60.465 25.9504 61.6159 29.0833 62.3831C32.2162 63.0864 35.0614 63.4381 37.6189 63.4381C42.1584 63.4381 45.2274 62.7987 46.8258 61.52C48.4881 60.2412 49.3193 58.5149 49.3193 56.3411C49.3193 54.8066 48.9037 53.4959 48.0725 52.409C47.3053 51.2581 45.8667 50.395 43.7568 49.8195C41.7108 49.2441 38.7058 48.9564 34.7417 48.9564H30.5219V35.0501H34.8376C40.0804 35.0501 43.7248 34.3788 45.7708 33.0361C47.8807 31.6934 48.9357 29.9671 48.9357 27.8572C48.9357 26.0031 48.2324 24.6604 46.8258 23.8292C45.4192 22.9341 43.565 22.4865 41.2633 22.4865C39.2173 22.4865 37.2672 22.7743 35.4131 23.3497C33.6228 23.9251 32.0564 24.5645 30.7137 25.2678C29.371 25.9072 28.348 26.4506 27.6447 26.8982L19.9723 14.5264C22.7855 12.6083 26.0143 10.9779 29.6587 9.63523C33.3671 8.29255 38.1943 7.62122 44.1404 7.62122C51.1735 7.62122 56.704 9.02783 60.732 11.841C64.824 14.6543 66.87 18.5224 66.87 23.4456Z" fill="#FF6DCE"/>
<mask id="mask0" mask-type="alpha" maskUnits="userSpaceOnUse" x="19" y="7" width="50" height="72">
<path d="M66.8701 23.7156C66.8701 26.9764 66.1668 29.7896 64.7602 32.1553C63.3536 34.457 61.4994 36.3751 59.1977 37.9096C56.9599 39.3801 54.4664 40.499 51.7171 41.2663V41.554C57.2157 42.1933 61.4355 43.8557 64.3766 46.5411C67.3816 49.1625 68.8841 52.9028 68.8841 57.762C68.8841 61.4703 67.8612 64.8909 65.8152 68.0238C63.8331 71.1567 60.7322 73.6503 56.5124 75.5044C52.3565 77.3586 46.9538 78.2857 40.3044 78.2857C35.8927 78.2857 32.1205 77.966 28.9876 77.3266C25.8546 76.6233 22.8176 75.6963 19.8766 74.5454V59.2006C22.8816 60.735 25.9506 61.8859 29.0835 62.6531C32.2164 63.3564 35.0616 63.7081 37.619 63.7081C42.1585 63.7081 45.2275 63.0687 46.8259 61.79C48.4883 60.5112 49.3195 58.785 49.3195 56.6111C49.3195 55.0766 48.9039 53.7659 48.0727 52.679C47.3055 51.5281 45.8669 50.665 43.757 50.0895C41.711 49.5141 38.706 49.2264 34.7419 49.2264H30.522V35.3201H34.8378C40.0806 35.3201 43.725 34.6488 45.771 33.3061C47.8809 31.9635 48.9358 30.2372 48.9358 28.1272C48.9358 26.2731 48.2325 24.9304 46.8259 24.0992C45.4193 23.2041 43.5652 22.7566 41.2634 22.7566C39.2174 22.7566 37.2674 23.0443 35.4132 23.6197C33.623 24.1951 32.0565 24.8345 30.7138 25.5378C29.3712 26.1772 28.3482 26.7206 27.6449 27.1682L19.9725 14.7964C22.7857 12.8783 26.0145 11.2479 29.6589 9.90525C33.3672 8.56257 38.1945 7.89124 44.1406 7.89124C51.1736 7.89124 56.7042 9.29785 60.7322 12.1111C64.8242 14.9243 66.8701 18.7925 66.8701 23.7156Z" fill="#FF6DCE"/>
</mask>
<g mask="url(#mask0)">
<path d="M61.9018 27.013C63.3587 21.9138 59.3725 10.8253 57.349 8.49829L71.6144 10.6229L73.7391 27.9235L60.3842 39.4573L52.4927 40.9749C56.135 37.3326 60.4449 32.1121 61.9018 27.013Z" fill="#F159BD"/>
<path d="M56.4385 67.6846C67.6687 59.7931 64.5736 49.1132 62.7525 43.751C65.383 43.5487 71.3725 43.9332 74.2863 47.0898C77.9285 51.0355 77.0179 60.4446 75.8038 65.6044C74.5898 70.7643 70.037 75.9241 60.6279 80.1734C51.2188 84.4226 26.9372 81.3875 19.9563 78.9593C14.3715 77.0168 16.0105 73.9006 17.5281 72.5854C25.4196 75.3171 45.6651 75.255 56.4385 67.6846Z" fill="#F159BD"/>
</g>
<path d="M37.4124 40.2648C41.8634 41.3006 46.6026 37.3582 48.4157 35.2576C48.763 39.1853 48.4275 46.9147 44.307 46.4099C40.1865 45.9051 37.9937 42.1029 37.4124 40.2648Z" fill="#B9007A"/>
<path d="M42.0157 45.6873C41.8558 42.4716 45.9675 42.2554 48.0433 42.5492C47.8067 43.5663 47.0044 45.713 45.6887 46.1636C44.3729 46.6142 42.6918 46.0338 42.0157 45.6873Z" fill="#E634A9"/>
<ellipse cx="49.0188" cy="9.88578" rx="6.78785" ry="7.99457" transform="rotate(20.83 49.0188 9.88578)" fill="white"/>
<circle cx="49.7499" cy="8.38859" r="2.10995" transform="rotate(20.83 49.7499 8.38859)" fill="#161E33"/>
<ellipse cx="35.3737" cy="8.29579" rx="4.85468" ry="5.71773" transform="rotate(20.83 35.3737 8.29579)" fill="white"/>
<circle cx="35.8966" cy="7.22518" r="1.07882" transform="rotate(20.83 35.8966 7.22518)" fill="#161E33"/>
</svg>
