<svg width="80" height="80" viewBox="0 0 80 80" fill="none" xmlns="http://www.w3.org/2000/svg">
<path d="M66.6635 61.4541H58.9243V74.9732H40.3111V61.4541H12.3914V47.5432L41.4867 5.02686H58.9243V47.3473H66.6635V61.4541ZM40.3111 47.3473V39.2163C40.3111 38.2367 40.3438 36.9631 40.4091 35.3957C40.4744 33.763 40.5397 32.2935 40.605 30.9873C40.6704 29.6811 40.703 28.9954 40.703 28.9301H40.2132C39.5601 30.3669 38.9723 31.5425 38.4498 32.4568C37.9927 33.3711 37.3396 34.4814 36.4906 35.7876L28.7514 47.3473H40.3111Z" fill="#B853E8"/>
<mask id="mask0" mask-type="alpha" maskUnits="userSpaceOnUse" x="12" y="4" width="56" height="71">
<path d="M67.1468 61.1007H59.4076V74.6198H40.7945V61.1007H12.8747V47.1898L41.97 4.67346H59.4076V46.9939H67.1468V61.1007ZM40.7945 46.9939V38.8629C40.7945 37.8833 40.8271 36.6097 40.8924 35.0423C40.9577 33.4096 41.0231 31.9401 41.0884 30.6339C41.1537 29.3277 41.1863 28.642 41.1863 28.5767H40.6965C40.0434 30.0135 39.4556 31.1891 38.9332 32.1034C38.476 33.0177 37.8229 34.128 36.9739 35.4342L29.2347 46.9939H40.7945Z" fill="#B853E8"/>
</mask>
<g mask="url(#mask0)">
<path d="M72.282 37.7429C55.5475 37.0735 39.3709 56.4297 33.3744 66.1914L8.69109 69.9569C25.0908 35.8187 57.9182 34.2566 72.282 37.7429Z" fill="#D353E8"/>
<path d="M64.8275 30.8922C49.8156 23.4672 27.1595 34.5598 17.7079 41.0342L-6.36989 34.4233C22.5087 9.92031 53.1278 21.8597 64.8275 30.8922Z" fill="#D353E8"/>
<path d="M66.3142 19.9943C52.5006 10.5247 28.5056 18.3083 18.2348 23.3839L-4.66884 13.4406C27.3792 -6.74092 56.0065 9.40073 66.3142 19.9943Z" fill="#D353E8"/>
<g style="mix-blend-mode:multiply">
<path d="M49.2721 61.9888C53.9577 58.3072 57.6393 42.3258 58.8944 34.7953L78.139 51.9481L74.7921 79.5599L33.7927 80.815V67.8458C37.0002 67.4274 44.5864 65.6703 49.2721 61.9888Z" fill="#AC43DE" fill-opacity="0.4"/>
</g>
<g style="mix-blend-mode:multiply">
<path d="M26.2622 41.0708C26.2622 34.377 24.5888 29.0778 23.7521 27.2649L17.0583 34.7954L11.2012 64.499C22.9154 66.1725 26.2622 49.438 26.2622 41.0708Z" fill="#AC43DE" fill-opacity="0.4"/>
</g>
</g>
<path fill-rule="evenodd" clip-rule="evenodd" d="M68.6903 63.481H60.9512V77H38.2843V63.481H10.3646V46.9161L40.4178 3H60.9512V45.3205H68.6903V63.481ZM58.9243 47.3473V5.02684H41.4867L12.3914 47.5432V61.4541H40.3112V74.9732H58.9243V61.4541H66.6635V47.3473H58.9243ZM38.1824 36.9037L32.5475 45.3205H38.2843V39.2163C38.2843 38.5056 38.3008 37.6561 38.3331 36.671C38.2859 36.7442 38.2382 36.8179 38.19 36.8922L38.1824 36.9037ZM40.4091 35.3957C40.3438 36.9631 40.3112 38.2366 40.3112 39.2163V47.3473H28.7514L36.4906 35.7875C37.3396 34.4814 37.9927 33.3711 38.4498 32.4568C38.47 32.4215 38.4903 32.3858 38.5107 32.3497C38.7494 31.9267 39.0015 31.4503 39.267 30.9204C39.5655 30.3246 39.8809 29.6611 40.2132 28.9301H40.703C40.703 28.9493 40.7002 29.0222 40.6945 29.1489C40.6811 29.4493 40.6518 30.052 40.6066 30.9569C40.6061 30.967 40.6056 30.9771 40.605 30.9873C40.5747 31.5946 40.5443 32.2372 40.514 32.9151C40.479 33.6952 40.4441 34.5221 40.4091 35.3957Z" fill="#9415CF"/>
<path d="M35.0434 30.012C39.0152 31.3427 43.6811 28.1557 45.5176 26.3959C45.4943 30.0101 44.5187 37.034 40.8025 36.2165C37.0862 35.3991 35.4146 31.7396 35.0434 30.012Z" fill="#7500AC"/>
<path d="M38.7741 35.3587C38.9067 32.4106 42.6774 32.5694 44.5461 33.0173C44.2421 33.9248 43.3241 35.8142 42.0844 36.1115C40.8448 36.4087 39.361 35.7335 38.7741 35.3587Z" fill="#9315CF"/>
<ellipse cx="40.1652" cy="16.343" rx="7.60066" ry="8.95188" fill="white"/>
<circle cx="40.3344" cy="14.4844" r="1.68903" fill="#161E33"/>
</svg>
