<svg width="72" height="72" viewBox="0 0 72 72" fill="none" xmlns="http://www.w3.org/2000/svg">
<path
  fill-rule="evenodd"
  clip-rule="evenodd"
  d="M59.8134 29.6187L59.8078 29.6279C58.403 31.9266 56.5501 33.8403 54.2683 35.3615L54.2634 35.3648L54.2584 35.368C53.6241 35.7848 52.9697 36.1719 52.2955 36.5295C54.9865 37.3811 57.2797 38.6286 59.1279 40.3115C62.2946 43.0822 63.7813 46.984 63.7813 51.7427C63.7813 55.4261 62.7602 58.8398 60.7356 61.9442C58.7207 65.1235 55.6207 67.5693 51.5838 69.3439C47.5349 71.1492 42.4004 71.9999 36.2737 71.9999C32.2249 71.9999 28.7034 71.7072 25.7315 71.1007L25.7144 71.0972L25.6974 71.0934C22.7908 70.4409 19.9707 69.5802 17.2379 68.5108L16.1028 68.0667V50.1204L18.7008 51.447C21.2825 52.7653 23.9093 53.7499 26.5829 54.4061C29.2983 55.0146 31.7195 55.3084 33.8569 55.3084C35.8266 55.3084 37.4073 55.1688 38.6284 54.9144C39.8674 54.6563 40.6132 54.3049 41.0275 53.9734L41.0408 53.9628L41.0543 53.9525C42.0925 53.1538 42.6015 52.1326 42.6015 50.7069C42.6015 49.6679 42.3278 48.882 41.8466 48.2528L41.8114 48.2068L41.7793 48.1586C41.4331 47.6394 40.6233 47.0274 38.9112 46.5604L38.9043 46.5586L38.8975 46.5567C37.2953 46.106 34.7868 45.8465 31.2675 45.8465H25.6838V29.7593H31.3538C36.0412 29.7593 38.8473 29.1363 40.2138 28.2394L40.2243 28.2326L40.2349 28.2258C41.7298 27.2746 42.2562 26.2389 42.2562 25.0715C42.2562 23.9324 41.8745 23.3618 41.2346 22.9837L41.2092 22.9687L41.1843 22.9529C40.2945 22.3866 38.9933 22.0237 37.1369 22.0237C35.4684 22.0237 33.8952 22.2575 32.4093 22.7177C30.877 23.2106 29.5682 23.7481 28.4709 24.3229L28.4407 24.3387L28.41 24.3533C27.225 24.9176 26.3806 25.3702 25.8389 25.715L24.3147 26.6849L15.556 12.5616L16.969 11.5982C19.6373 9.77894 22.677 8.248 26.0754 6.99596L26.0801 6.99423L26.0848 6.99253C29.6898 5.68728 34.262 5.07324 39.7263 5.07324C46.2673 5.07324 51.6473 6.3777 55.6758 9.18898C59.8346 12.0504 61.9687 16.0782 61.9687 21.101C61.9687 24.2971 61.2772 27.1569 59.8189 29.6094L59.8134 29.6187ZM31.8717 21.0147C33.5404 20.4968 35.2955 20.2379 37.1369 20.2379C39.2084 20.2379 40.8772 20.6407 42.1431 21.4463C43.4091 22.1943 44.042 23.4027 44.042 25.0715C44.042 26.9704 43.0926 28.5241 41.1936 29.7325C39.3523 30.9409 36.0723 31.5451 31.3538 31.5451H27.4696V44.0607H31.2675C34.8351 44.0607 37.5397 44.3197 39.381 44.8375C41.28 45.3554 42.5747 46.1323 43.2652 47.168C44.0133 48.1463 44.3873 49.3259 44.3873 50.7069C44.3873 52.6634 43.6392 54.2171 42.1431 55.3679C40.7045 56.5188 37.9425 57.0942 33.8569 57.0942C31.5552 57.0942 28.9945 56.7777 26.1749 56.1448C23.973 55.6055 21.8062 54.8557 19.6745 53.8954C19.0765 53.626 18.4812 53.34 17.8887 53.0374V66.8478C20.5357 67.8836 23.269 68.718 26.0886 69.3509C28.9082 69.9264 32.3032 70.2141 36.2737 70.2141C42.2582 70.2141 47.1206 69.3797 50.8609 67.7109C54.6587 66.0422 57.4496 63.798 59.2334 60.9784C61.0748 58.1588 61.9955 55.0802 61.9955 51.7427C61.9955 47.3694 60.6432 44.0032 57.9387 41.6439C55.8982 39.7808 53.1738 38.4649 49.7655 37.6961C48.7748 37.4726 47.7262 37.2953 46.6199 37.1643C46.595 37.1614 46.5701 37.1584 46.5452 37.1555V36.8966C46.5555 36.8937 46.5659 36.8908 46.5763 36.8879C47.6258 36.5936 48.6339 36.2423 49.6005 35.834C50.9014 35.2845 52.1271 34.6317 53.2777 33.8756C55.3493 32.4945 57.018 30.7682 58.284 28.6967C59.5499 26.5676 60.1829 24.0357 60.1829 21.101C60.1829 16.6702 58.3415 13.1888 54.6587 10.6569C51.0335 8.12502 46.056 6.85906 39.7263 6.85906C34.3748 6.85906 30.0303 7.46327 26.6928 8.67168C23.4128 9.88008 20.5069 11.3474 17.975 13.0737L24.8802 24.2083C24.8802 24.2083 24.8801 24.2084 24.8802 24.2083C24.9506 24.1635 25.0247 24.1175 25.1023 24.0706C25.7217 23.6955 26.5684 23.2523 27.6422 22.741C28.8506 22.108 30.2604 21.5326 31.8717 21.0147Z"
  fill="#E734A9"
/>
<path d="M18.9941 44.6031C15.5946 45.7542 15.4457 49.9389 15.7962 51.8874L17.0577 52.5838C19.1196 49.4439 22.3936 43.452 18.9941 44.6031Z" fill="#E634A9"/>
<path d="M9.90006 47.9206C13.1798 46.4629 16.1255 49.439 17.1884 51.1092L16.7329 52.4762C13.0887 51.565 6.62029 49.3782 9.90006 47.9206Z" fill="#E634A9"/>
<path d="M9.83187 55.9394C10.4918 52.4114 14.6137 51.6737 16.5922 51.7458L17.4596 52.8963C14.642 55.3806 9.17191 59.4673 9.83187 55.9394Z" fill="#E634A9"/>
<path d="M60.183 21.101C60.183 24.0357 59.55 26.5676 58.2841 28.6967C57.0181 30.7682 55.3494 32.4945 53.2778 33.8756C51.2638 35.1991 49.0196 36.2061 46.5453 36.8966V37.1555C51.494 37.731 55.2918 39.2271 57.9388 41.6439C60.6434 44.0032 61.9956 47.3694 61.9956 51.7427C61.9956 55.0802 61.0749 58.1588 59.2336 60.9784C57.4497 63.798 54.6589 66.0422 50.861 67.7109C47.1207 69.3797 42.2583 70.2141 36.2738 70.2141C32.3034 70.2141 28.9083 69.9264 26.0887 69.3509C23.2691 68.7179 20.5358 67.8836 17.8888 66.8478V53.0374C20.5933 54.4185 23.3554 55.4543 26.175 56.1448C28.9946 56.7778 31.5553 57.0942 33.857 57.0942C37.9426 57.0942 40.7047 56.5188 42.1432 55.3679C43.6394 54.2171 44.3874 52.6634 44.3874 50.7069C44.3874 49.3259 44.0134 48.1463 43.2653 47.168C42.5748 46.1323 41.2801 45.3554 39.3812 44.8375C37.5398 44.3197 34.8353 44.0607 31.2676 44.0607H27.4697V31.5451H31.3539C36.0724 31.5451 39.3524 30.9409 41.1938 29.7325C43.0927 28.5241 44.0422 26.9704 44.0422 25.0715C44.0422 23.4027 43.4092 22.1943 42.1432 21.4463C40.8773 20.6407 39.2085 20.2379 37.137 20.2379C35.2956 20.2379 33.5405 20.4968 31.8718 21.0147C30.2606 21.5326 28.8508 22.108 27.6424 22.741C26.434 23.3164 25.5133 23.8055 24.8803 24.2083L17.9751 13.0737C20.507 11.3474 23.4129 9.88009 26.6929 8.67168C30.0304 7.46327 34.3749 6.85907 39.7264 6.85907C46.0562 6.85907 51.0337 8.12502 54.6589 10.6569C58.3416 13.1888 60.183 16.6702 60.183 21.101Z" fill="#FF6DCE"/>
<mask id="mask0" mask-type="alpha" maskUnits="userSpaceOnUse" x="17" y="7" width="45" height="64">
<path d="M60.1831 21.344C60.1831 24.2787 59.5502 26.8106 58.2842 28.9397C57.0183 31.0113 55.3495 32.7376 53.278 34.1186C51.2639 35.4421 49.0198 36.4491 46.5454 37.1396V37.3986C51.4941 37.974 55.292 39.4701 57.939 41.887C60.6435 44.2462 61.9957 47.6125 61.9957 51.9858C61.9957 55.3233 61.0751 58.4018 59.2337 61.2214C57.4498 64.0411 54.659 66.2852 50.8611 67.954C47.1208 69.6227 42.2584 70.4571 36.274 70.4571C32.3035 70.4571 28.9084 70.1694 26.0888 69.594C23.2692 68.961 20.5359 68.1266 17.8889 67.0909V53.2805C20.5934 54.6615 23.3555 55.6973 26.1751 56.3878C28.9947 57.0208 31.5554 57.3373 33.8571 57.3373C37.9427 57.3373 40.7048 56.7619 42.1434 55.611C43.6395 54.4601 44.3875 52.9065 44.3875 50.95C44.3875 49.569 44.0135 48.3893 43.2654 47.4111C42.5749 46.3753 41.2802 45.5985 39.3813 45.0806C37.5399 44.5627 34.8354 44.3038 31.2677 44.3038H27.4699V31.7881H31.354C36.0726 31.7881 39.3525 31.1839 41.1939 29.9755C43.0928 28.7671 44.0423 27.2134 44.0423 25.3145C44.0423 23.6458 43.4093 22.4374 42.1434 21.6893C40.8774 20.8837 39.2087 20.4809 37.1371 20.4809C35.2957 20.4809 33.5407 20.7398 31.8719 21.2577C30.2607 21.7756 28.8509 22.351 27.6425 22.984C26.4341 23.5595 25.5134 24.0486 24.8804 24.4514L17.9752 13.3168C20.5071 11.5905 23.4131 10.1231 26.693 8.91472C30.0305 7.70632 34.375 7.10211 39.7265 7.10211C46.0563 7.10211 51.0338 8.36806 54.659 10.9C58.3418 13.4319 60.1831 16.9132 60.1831 21.344Z" fill="#FF6DCE"/>
</mask>
<g mask="url(#mask0)">
<path d="M55.7117 24.3117C57.0229 19.7225 53.4353 9.74278 51.6142 7.6485L64.4531 9.56067L66.3652 25.1312L54.3459 35.5116L47.2435 36.8774C50.5215 33.5994 54.4005 28.9009 55.7117 24.3117Z" fill="#F159BD"/>
<path d="M50.7946 60.916C60.9018 53.8137 58.1162 44.2018 56.4772 39.3759C58.8447 39.1938 64.2352 39.5398 66.8576 42.3807C70.1356 45.9319 69.3161 54.4001 68.2235 59.0439C67.1308 63.6878 63.0333 68.3316 54.5651 72.156C46.0969 75.9803 24.2435 73.2486 17.9606 71.0633C12.9344 69.315 14.4095 66.5105 15.7753 65.3268C22.8777 67.7853 41.0986 67.7295 50.7946 60.916Z" fill="#F159BD"/>
</g>
<path d="M33.6712 36.2383C37.6771 37.1705 41.9423 33.6223 43.5741 31.7317C43.8867 35.2667 43.5847 42.2231 39.8763 41.7688C36.1678 41.3145 34.1943 37.8925 33.6712 36.2383Z" fill="#B9007A"/>
<path d="M37.8141 41.1185C37.6702 38.2244 41.3708 38.0298 43.239 38.2943C43.026 39.2096 42.304 41.1417 41.1198 41.5472C39.9357 41.9527 38.4226 41.4304 37.8141 41.1185Z" fill="#E634A9"/>
<ellipse cx="44.1169" cy="8.8972" rx="6.10906" ry="7.19512" transform="rotate(20.83 44.1169 8.8972)" fill="white"/>
<circle cx="44.7749" cy="7.54971" r="1.89895" transform="rotate(20.83 44.7749 7.54971)" fill="#161E33"/>
<ellipse cx="31.8363" cy="7.4662" rx="4.36921" ry="5.14596" transform="rotate(20.83 31.8363 7.4662)" fill="white"/>
<ellipse cx="32.3068" cy="6.50261" rx="0.970935" ry="0.970935" transform="rotate(20.83 32.3068 6.50261)" fill="#161E33"/>
</svg>
