<svg width="220" height="280" viewBox="0 0 220 280" fill="none" xmlns="http://www.w3.org/2000/svg">
<g id="3">
<ellipse id="Ellipse 177" cx="126.063" cy="267.942" rx="82.2151" ry="12.0582" fill="#DBDBEE"/>
<g id="Group 329">
<g id="Group 299">
<path
  id="3-stroke"
  fill-rule="evenodd"
  clip-rule="evenodd"
  d="M203.911 98.4991L203.888 98.5361C198.251 107.761 190.815 115.44 181.658 121.544L181.639 121.558L181.619 121.571C179.073 123.243 176.447 124.797 173.742 126.232C184.54 129.649 193.743 134.655 201.16 141.409C213.867 152.527 219.833 168.185 219.833 187.281C219.833 202.062 215.736 215.761 207.611 228.219C199.525 240.977 187.085 250.792 170.886 257.914C154.638 265.158 134.033 268.572 109.447 268.572C93.1999 268.572 79.0682 267.397 67.1422 264.963L67.0737 264.949L67.0055 264.934C55.3416 262.316 44.0245 258.862 33.0581 254.571L28.5032 252.788V180.771L38.9287 186.094C49.2887 191.385 59.8301 195.336 70.5587 197.969C81.4555 200.411 91.1719 201.59 99.7489 201.59C107.653 201.59 113.996 201.03 118.897 200.009C123.869 198.973 126.861 197.563 128.524 196.233L128.577 196.19L128.631 196.149C132.798 192.944 134.84 188.846 134.84 183.125C134.84 178.955 133.742 175.801 131.811 173.277L131.67 173.092L131.541 172.899C130.152 170.815 126.902 168.359 120.031 166.485L120.004 166.478L119.977 166.47C113.547 164.662 103.481 163.62 89.3577 163.62H66.9508V99.0632H89.704C108.514 99.0632 119.775 96.5632 125.259 92.9643L125.301 92.9367L125.343 92.9097C131.342 89.0923 133.455 84.9362 133.455 80.2515C133.455 75.6805 131.923 73.3908 129.355 71.8735L129.253 71.8133L129.153 71.7497C125.582 69.4772 120.361 68.0209 112.911 68.0209C106.216 68.0209 99.9025 68.9592 93.9398 70.8059C87.7909 72.7841 82.5385 74.941 78.1351 77.2476L78.0142 77.3109L77.891 77.3696C73.1356 79.6341 69.7472 81.4503 67.5734 82.8337L61.4567 86.7262L26.3088 30.0502L31.9788 26.1843C42.6865 18.8836 54.8849 12.7401 68.5223 7.71574L68.5412 7.7088L68.5601 7.70196C83.0265 2.46411 101.374 0 123.302 0C149.551 0 171.141 5.23469 187.307 16.5162C203.996 27.9986 212.56 44.162 212.56 64.3182C212.56 77.1441 209.784 88.6202 203.933 98.4618L203.911 98.4991ZM91.7823 63.9719C98.4789 61.8936 105.522 60.8545 112.911 60.8545C121.224 60.8545 127.921 62.4709 133.001 65.7037C138.081 68.7056 140.621 73.5549 140.621 80.2515C140.621 87.8717 136.811 94.1065 129.191 98.9557C121.801 103.805 108.639 106.23 89.704 106.23H74.1172V156.454H89.3577C103.674 156.454 114.528 157.493 121.917 159.571C129.537 161.65 134.733 164.767 137.504 168.923C140.506 172.849 142.007 177.583 142.007 183.125C142.007 190.976 139.005 197.211 133.001 201.829C127.228 206.447 116.144 208.757 99.7489 208.757C90.5122 208.757 80.2365 207.487 68.9215 204.946C60.0855 202.783 51.3903 199.774 42.8359 195.92C40.4361 194.839 38.0473 193.691 35.6696 192.477V247.897C46.2917 252.053 57.2603 255.402 68.5752 257.942C79.8901 260.251 93.5142 261.406 109.447 261.406C133.463 261.406 152.975 258.057 167.985 251.361C183.225 244.664 194.425 235.658 201.583 224.343C208.972 213.029 212.667 200.674 212.667 187.281C212.667 169.732 207.241 156.223 196.387 146.755C188.199 139.279 177.266 133.998 163.589 130.913C159.613 130.016 155.406 129.305 150.966 128.779C150.866 128.767 150.766 128.756 150.666 128.744V127.705C150.708 127.693 150.749 127.682 150.791 127.67C155.003 126.489 159.048 125.079 162.927 123.441C168.147 121.236 173.066 118.616 177.683 115.582C185.996 110.04 192.693 103.112 197.773 94.7992C202.853 86.2553 205.393 76.095 205.393 64.3182C205.393 46.5377 198.004 32.5672 183.225 22.4069C168.677 12.2466 148.703 7.16638 123.302 7.16638C101.827 7.16638 84.3929 9.59101 70.9998 14.4403C57.8375 19.2895 46.1763 25.1779 36.0159 32.1054L63.7259 76.7877C63.7261 76.7876 63.7257 76.7879 63.7259 76.7877C64.0085 76.6079 64.3061 76.4233 64.6173 76.2349C67.103 74.7299 70.5006 72.9514 74.8099 70.8994C79.6592 68.3593 85.3166 66.0501 91.7823 63.9719Z"
  fill="#FF6DCD"
  />
<path id="Vector 358" d="M40.1058 158.63C26.4638 163.25 25.8664 180.043 27.273 187.862L32.335 190.657C40.6094 178.056 53.7478 154.011 40.1058 158.63Z" fill="#FF6DCD"/>
<path id="Vector 359" d="M3.61188 171.943C16.7734 166.094 28.5943 178.037 32.8596 184.739L31.0316 190.225C16.4078 186.568 -9.5496 177.793 3.61188 171.943Z" fill="#FF6DCD"/>
<path id="Vector 360" d="M3.33822 204.123C5.9866 189.965 22.5275 187.005 30.4669 187.294L33.9476 191.911C22.641 201.88 0.689842 218.28 3.33822 204.123Z" fill="#FF6DCD"/>
<path id="3_2" d="M205.394 64.3181C205.394 76.0949 202.854 86.2552 197.773 94.7991C192.693 103.112 185.997 110.04 177.684 115.582C169.602 120.893 160.596 124.934 150.666 127.705V128.744C170.525 131.053 185.766 137.057 196.388 146.755C207.241 156.223 212.667 169.732 212.667 187.281C212.667 200.674 208.973 213.028 201.583 224.343C194.425 235.658 183.226 244.664 167.985 251.361C152.976 258.057 133.463 261.405 109.448 261.405C93.5145 261.405 79.8904 260.251 68.5755 257.942C57.2606 255.402 46.2921 252.053 35.6699 247.897V192.477C46.523 198.019 57.607 202.175 68.9219 204.946C80.2368 207.486 90.5126 208.756 99.7493 208.756C116.144 208.756 127.228 206.447 133.001 201.829C139.005 197.211 142.007 190.976 142.007 183.125C142.007 177.583 140.506 172.849 137.504 168.923C134.733 164.767 129.538 161.649 121.917 159.571C114.528 157.493 103.675 156.454 89.358 156.454H74.1175V106.229H89.7044C108.64 106.229 121.802 103.805 129.191 98.9556C136.811 94.1064 140.622 87.8716 140.622 80.2514C140.622 73.5548 138.081 68.7055 133.001 65.7036C127.921 62.4708 121.225 60.8544 112.912 60.8544C105.522 60.8544 98.4792 61.8935 91.7827 63.9718C85.317 66.05 79.6595 68.3592 74.8103 70.8992C69.961 73.2084 66.2664 75.1712 63.7263 76.7876L36.0163 32.1053C46.1766 25.1778 57.8379 19.2894 71.0002 14.4401C84.3933 9.59089 101.828 7.16626 123.303 7.16626C148.704 7.16626 168.678 12.2464 183.226 22.4068C198.004 32.5671 205.394 46.5375 205.394 64.3181Z" fill="#FF6DCE"/>
<g id="Mask Group">
<mask id="mask0" mask-type="alpha" maskUnits="userSpaceOnUse" x="35" y="8" width="178" height="255">
<path id="4" d="M205.394 65.2937C205.394 77.0704 202.854 87.2308 197.774 95.7747C192.694 104.088 185.997 111.015 177.684 116.557C169.602 121.868 160.596 125.909 150.667 128.68V129.719C170.526 132.029 185.766 138.032 196.388 147.731C207.242 157.199 212.668 170.707 212.668 188.257C212.668 201.65 208.973 214.004 201.584 225.319C194.426 236.634 183.226 245.64 167.986 252.336C152.976 259.033 133.464 262.381 109.448 262.381C93.5151 262.381 79.891 261.226 68.5761 258.917C57.2612 256.377 46.2926 253.029 35.6705 248.872V193.452C46.5235 198.994 57.6075 203.151 68.9225 205.922C80.2374 208.462 90.5132 209.732 99.7498 209.732C116.145 209.732 127.229 207.423 133.002 202.805C139.006 198.186 142.008 191.951 142.008 184.1C142.008 178.558 140.507 173.824 137.505 169.899C134.734 165.742 129.538 162.625 121.918 160.547C114.528 158.469 103.675 157.429 89.3586 157.429H74.1181V107.205H89.705C108.64 107.205 121.802 104.78 129.192 99.9312C136.812 95.0819 140.622 88.8472 140.622 81.2269C140.622 74.5304 138.082 69.6811 133.002 66.6792C127.922 63.4464 121.225 61.83 112.912 61.83C105.523 61.83 98.4798 62.8691 91.7832 64.9473C85.3175 67.0256 79.6601 69.3347 74.8108 71.8748C69.9616 74.184 66.2669 76.1468 63.7268 77.7632L36.0168 33.0808C46.1772 26.1533 57.8385 20.265 71.0007 15.4157C84.3939 10.5665 101.828 8.14185 123.303 8.14185C148.704 8.14185 168.678 13.222 183.226 23.3823C198.005 33.5427 205.394 47.5131 205.394 65.2937Z" fill="#FF6DCE"/>
</mask>
<g mask="url(#mask0)">
<path id="Vector 338" d="M187.45 77.2028C192.712 58.7866 178.315 18.7387 171.007 10.3345L222.529 18.0079L230.202 80.4914L181.969 122.147L153.468 127.628C166.623 114.474 182.189 95.6189 187.45 77.2028Z" fill="#F159BD"/>
<path id="Vector 337" d="M167.719 224.094C208.278 195.592 197.1 157.021 190.523 137.654C200.023 136.924 221.655 138.312 232.178 149.713C245.333 163.963 242.044 197.945 237.659 216.581C233.275 235.216 216.832 253.852 182.849 269.199C148.867 284.545 61.1708 273.583 35.9582 264.814C15.7881 257.798 21.7076 246.544 27.1886 241.794C55.6898 251.659 128.809 251.435 167.719 224.094Z" fill="#F159BD"/>
</g>
</g>
<g id="Group 324">
<path id="Vector 326" d="M99.0037 125.063C115.079 128.804 132.195 114.565 138.744 106.979C139.998 121.164 138.786 149.08 123.904 147.257C109.023 145.434 101.103 131.701 99.0037 125.063Z" fill="#B9007A"/>
<path id="Vector 327" d="M115.629 144.647C115.052 133.033 129.902 132.252 137.399 133.314C136.544 136.987 133.646 144.74 128.894 146.367C124.143 147.995 118.071 145.899 115.629 144.647Z" fill="#E634A9"/>
</g>
</g>
<g id="Group 319">
<ellipse id="Ellipse 172" cx="139.52" cy="35.7263" rx="24.5152" ry="28.8735" transform="rotate(20.83 139.52 35.7263)" fill="white"/>
<circle id="Ellipse 174" cx="142.16" cy="30.3189" r="7.62037" transform="rotate(20.83 142.16 30.3189)" fill="#161E33"/>
</g>
<g id="Group 320">
<ellipse id="Ellipse 172_2" cx="90.2386" cy="29.9837" rx="17.5333" ry="20.6504" transform="rotate(20.83 90.2386 29.9837)" fill="white"/>
<circle id="Ellipse 174_2" cx="92.127" cy="26.1167" r="3.8963" transform="rotate(20.83 92.127 26.1167)" fill="#161E33"/>
</g>
</g>
</g>
</svg>
